<svg xmlns="http://www.w3.org/2000/svg" version="1" viewBox="0 0 700 700"><path d="M349 62c-14.2 3.3-21.8 6.8-47 18-25.4 11-36.8 20-39.6 29.5-3 10-1.3 31.5 3.5 44.8 3 9 12 29.8 19 42.2-6 11.5-8 27-9 35-1 5-1 26.5 1 37.7 1 11.3 10 32.3 21 48.5 5 7.3 17 20 30.2 32.4 7.7 7 10.4 13 10 19-.6 7 2 15-11 17-12.6 3-23.4-2-57-7s-47-9-67-17c-19.4-8-27.5-14-36-28-13.6-20-16-24-20.4-27-6-5-10.4-6-18-6-11 0-18.5 5-23.3 15.6-19 41.8-43 93.3-43.5 132-.7 18.3 0 27 3 42.6 5 23.6 19 54 42 77.6 23 23 37 36 90 56s84 23 108.4 25.7c24.2 2.8 98 2.8 137-2.3 39.4-5 67-11 102-27.6 35.4-16.8 53-35.5 59-46 8.7-15 13.5-26 16.5-40 12.5-53-9-107.7-43.3-130.3-34-22.4-48-35-52-40-3.6-4.5-12.8-19-15.7-25l11-13s24 9.5 35.8 9.2c10 0 15-2.2 18-7 2-3 2-3 1-6-1-2-5-7-9.3-11-12.6-11-13-12-8-10 4 2 12.6 2 17.5 0 14-6 28.3-16.6 22-34-12-1-24.6 1.7-36-.6-7.8-1.6-11.6-9-18.8-11-2-.3-2.7-1.3-3-5.6-1.7-21-9.7-43-22-61-3-5-5.5-9-5-9l10.6-6c9.5-4.7 10.7-5 19.6-5.4 10-.8 15-2.6 17-6.6 2.3-6-2-10-14-13-3-1-11.6-3.6-28-9-16-6-20-8-20.3-9-1-3.4-6-17.2-14-36.2s-14.2-31-18-35c-4-4-13.4-9-19.2-10-37-6-66 4-97 11z"/></svg>