<svg xmlns="http://www.w3.org/2000/svg" xmlns:xlink="http://www.w3.org/1999/xlink" xml:space="preserve" width="1024" height="1024">
  <defs>
    <radialGradient xlink:href="#a" id="d" cx="521.4" cy="724.7" r="400.5" fx="521.4" fy="724.7" gradientTransform="translate(0,-300.57733)" gradientUnits="userSpaceOnUse"/>
    <radialGradient xlink:href="#b" id="c" cx="-529.5" cy="1020.2" r="512" fx="-529.5" fy="1020.2" gradientTransform="matrix(2.1570144,0,0,1.6212953,612.62551,-633.87565)" gradientUnits="userSpaceOnUse"/>
    <linearGradient id="a">
      <stop offset=".3" stop-color="#0aa3e3" stop-opacity=".2"/>
      <stop offset=".7" stop-color="#3f75b2" stop-opacity="0"/>
    </linearGradient>
    <linearGradient id="b">
      <stop offset="0" stop-color="#14388c"/>
      <stop offset="1" stop-color="#010423"/>
    </linearGradient>
  </defs>
  <path fill="url(#c)" stroke="#000" d="M-1024 1H-1v1023h-1023z" transform="scale(-1,1)"/>
  <circle cx="86.8" cy="313.1" r="3.3" fill="#a7b6ff" fill-opacity=".8"/>
  <circle cx="72.4" cy="335.9" r="2.1" fill="#fbfffb"/>
  <circle cx="187.5" cy="593.4" r="3.6" fill="#fbfffb"/>
  <circle cx="265.7" cy="587.9" r="1.7" fill="#fbfffb"/>
  <circle cx="340.4" cy="682.5" r="1.7" fill="#b2e4ff"/>
  <circle cx="408.2" cy="641.7" r="1.7" fill="#d8f1ff"/>
  <circle cx="787.2" cy="636.5" r="1.7" fill="#e4f5ff"/>
  <circle cx="806.4" cy="633.3" r="1.7" fill="#a8e1ff"/>
  <circle cx="946.3" cy="787" r="1.7" fill="#b6e5ff"/>
  <circle cx="907.1" cy="783.3" r="1.7" fill="#b6e5ff"/>
  <circle cx="634.4" cy="864.9" r="2.4" fill="#fff"/>
  <circle cx="653.3" cy="848.2" r="1.8" fill="#ffe4e4"/>
  <circle cx="259.2" cy="597.2" r="1.7" fill="#fbfffb"/>
  <circle cx="272.3" cy="775.7" r="3.1" fill="#f9f6f1"/>
  <circle cx="140.3" cy="867.2" r="2.2" fill="#cefbfb"/>
  <circle cx="148.9" cy="878.4" r="1.8" fill="#fff"/>
  <circle cx="204.2" cy="793.5" r="1.8" fill="#fff"/>
  <circle cx="254.3" cy="824.5" r="1.8" fill="#fff"/>
  <circle cx="253.4" cy="436.8" r="1.8" fill="#fff"/>
  <circle cx="324" cy="467" r="1.8" fill="#fff"/>
  <circle cx="10.8" cy="441.6" r="1.8" fill="#fff"/>
  <circle cx="38.3" cy="411.9" r="1.8" fill="#fff"/>
  <circle cx="727.3" cy="353" r="1.3" fill="#fff"/>
  <circle cx="790.9" cy="311.3" r="1.3" fill="#fff" fill-opacity=".6"/>
  <circle cx="803" cy="309" r="1.3" fill="#fff"/>
  <circle cx="851.6" cy="285.3" r="1.3" fill="#fff" fill-opacity=".3"/>
  <circle cx="872.7" cy="275" r="1.3" fill="#fff" fill-opacity=".3"/>
  <circle cx="502" cy="326.3" r="1.3" fill="#fff" fill-opacity=".8"/>
  <circle cx="503.9" cy="332.5" r="1.3" fill="#fff" fill-opacity=".3"/>
  <circle cx="548.7" cy="345.9" r="1.3" fill="#fff" fill-opacity=".7"/>
  <circle cx="363.7" cy="137" r="1.3" fill="#fff"/>
  <circle cx="418.2" cy="96.7" r="1.3" fill="#fff" fill-opacity=".7"/>
  <circle cx="429.3" cy="99.1" r="1.3" fill="#fff"/>
  <circle cx="272" cy="136.1" r="1.3" fill="#fff" fill-opacity=".8"/>
  <circle cx="177.4" cy="98.3" r="1.3" fill="#fff"/>
  <circle cx="81.3" cy="73.6" r="1.3" fill="#fff" fill-opacity=".8"/>
  <circle cx="175.4" cy="32.3" r="1.3" fill="#fff"/>
  <circle cx="100.5" cy="173.3" r="1.3" fill="#fff"/>
  <circle cx="123.8" cy="200.9" r="1.3" fill="#fff" fill-opacity=".3"/>
  <circle cx="88.6" cy="554.8" r="1.3" fill="#fff"/>
  <circle cx="477.9" cy="535" r="1.3" fill="#fff"/>
  <circle cx="830.5" cy="753.3" r="1.3" fill="#fff" fill-opacity=".7"/>
  <circle cx="827.5" cy="709.9" r="1.3" fill="#fff" fill-opacity=".9"/>
  <circle cx="520.3" cy="860.1" r="1.3" fill="#fff"/>
  <circle cx="583.1" cy="926.5" r="1.3" fill="#fff" fill-opacity=".8"/>
  <circle cx="731.6" cy="916.5" r="1.3" fill="#fff"/>
  <circle cx="754.9" cy="839.9" r="1.3" fill="#b9fdff" fill-opacity=".8"/>
  <circle cx="411.8" cy="919.4" r="3.1" fill="#f9f6f1"/>
  <circle cx="536.6" cy="732.5" r="2.3" fill="#f9f6f1"/>
  <circle cx="560.2" cy="528.4" r="2.3" fill="#d1ebd4"/>
  <circle cx="631.4" cy="499.8" r="2.3" fill="#a4cbd7"/>
  <circle cx="845.8" cy="423.8" r="2.3" fill="#aedfef"/>
  <circle cx="621" cy="363" r="2.3" fill="#aedfef"/>
  <circle cx="584.1" cy="275.4" r="2.3" fill="#aedfef"/>
  <circle cx="602.5" cy="239.7" r="2.3" fill="#d6eff7"/>
  <circle cx="637.6" cy="254.8" r="1.8" fill="#feffff"/>
  <circle cx="668.8" cy="264.9" r="1.8" fill="#feffff"/>
  <circle cx="544.8" cy="225.4" r="1.8" fill="#feffff"/>
  <circle cx="336.8" cy="274" r="1.8" fill="#feffff"/>
  <circle cx="403.6" cy="203.7" r="1.8" fill="#feffff" fill-opacity=".7"/>
  <circle cx="211.8" cy="306.7" r="1.3" fill="#feffff"/>
  <circle cx="323.1" cy="211.2" r="1.3" fill="#feffff"/>
  <circle cx="356.6" cy="526.6" r="1.3" fill="#feffff"/>
  <circle cx="765.7" cy="303.6" r="1.8" fill="#feffff"/>
  <circle cx="818.5" cy="266.4" r="1.8" fill="#feffff"/>
  <circle cx="884.1" cy="384.5" r="2.3" fill="#c7e8f5"/>
  <circle cx="880" cy="235.5" r="1.8" fill="#90dcff"/>
  <circle cx="896.3" cy="219.7" r="1.8" fill="#90dcff"/>
  <circle cx="720.1" cy="86.6" r="1.8" fill="#90dcff"/>
  <circle cx="736.9" cy="75.2" r="1.8" fill="#90dcff"/>
  <circle cx="765" cy="34.9" r="1.6" fill="#90dcff"/>
  <circle cx="774.7" cy="36.5" r="2.1" fill="#c9eeff"/>
  <circle cx="895.4" cy="260.3" r="1.8" fill="#90dcff"/>
  <circle cx="920.7" cy="258.6" r="1.8" fill="#ffcfc3"/>
  <circle cx="800.1" cy="695.4" r="2.3" fill="#f9f6f1"/>
  <circle cx="908.2" cy="906.5" r="2.3" fill="#e4f3e2"/>
  <circle cx="521.4" cy="424.1" r="400" fill="url(#d)"/>
  <circle cx="521.4" cy="424.1" r="120.2" fill="#fff"/>
  <path fill="#e9f4f6" d="M629 488c-7 8-32-17-62-13-3 1-20 3-23 14-2 5 1 13 6 17 3 2 8 3 17 3 4 1 7 1 9 3s1 3 2 5c3 4 8 5 14 6 10 1 28 3 42-5 2-1 7-4 12-3l8 3c5 2 10 2 14 2 11 0 14-3 22-3 9 0 14 5 22 8 31 11 74 9 88-5l4-5c7-5 15-4 34-5 13 0 17-1 20-4 5-4 6-12 7-13 1-13-11-24-15-28-9-8-19-12-36-16-16-4-55-13-93-5-10 2-18 4-26 10-9 7-10 11-17 14-11 4-14-5-26-1-9 2-18 9-22 18l-1 3z"/>
  <path fill="#fff" d="M931 499c-22 17-105 7-104 2 0-3 27 1 33-11 1-4 0-9-2-13-2-5-6-7-10-9-1-1-8-4-17-3-11 0-14 5-18 2-4-2-2-7-6-13-7-9-21-9-22-9-8 0-14 3-17 5l-9 5-6 4c-6 1-10-3-17-7 0 0-9-4-21-4-15 1-25 11-28 14-7 6-10 13-12 16-1-2-5-5-10-7-9-4-17-1-19 0-11 4-15 14-17 13-1-1 3-13 12-22 10-10 22-13 25-13 11-2 20 1 24 2 1-3 9-23 28-29 8-2 16-1 17-1 10 2 16 6 19 9 0-1 5-5 12-4 6 1 9 6 9 6 2-4 6-9 12-14 4-4 13-12 27-13 16-1 27 7 31 10 16 13 17 32 17 35 1-2 5-6 11-8 3-1 10-2 17 1 9 4 12 12 13 13 2 7 0 10 2 12 4 3 9-2 19 0 1 0 5 1 9 4 1 1 7 7 6 15-1 6-6 11-8 12z"/>
  <path fill="#ceeaf0" d="M854 489c-13-5-11-8-21-11-26-7-43 16-67 8-7-2-12-7-15-10-2 3-17 22-42 22-12 0-21-5-26-7-7 11-21 16-33 12-14-4-18-19-19-20l-1 2-1 3c-7 8-32-17-62-13-3 1-20 3-23 14-2 5 1 13 6 17 3 2 8 3 17 3 4 1 7 1 9 3s1 3 2 5c3 4 8 5 14 6 10 1 28 3 42-5 2-1 7-4 12-3l8 3c6 2 10 2 14 2 11 0 14-3 22-3 9 0 14 5 22 8 31 11 74 9 88-5l4-5c11-8 25-6 34-5 18 3 45 6 71 1 0 0 25-5 30-17 2-6 1-11 1-11l-2-4c0 1-6 12-18 14-10 2-17-3-18-4-12 3-29 6-48 0z"/>
  <path fill="#fff" d="M821 485c9-2 17 1 19 1 10 3 16 10 18 8l1-5s0-6 5-12c6-6 15-7 23-4 9 3 13 11 14 13 7 16-3 31-4 32s-5 7-13 11a411 411 0 0 1-70-1l-15-2c-9 0-10 2-16 2-3 0-18 0-22-9-2-6 1-14 7-18 4-3 8-3 11-3 11-1 12 4 19 4 10-1 11-13 23-17zm-169 11c0 4-8 6-8 6-6 1-8-1-16-3-13-3-16-3-18-2l-7 3c-1 1-7 3-12 0-2-1-7-3-8-8-1-3 0-6 1-7 1-3 4-4 6-5a14 14 0 0 1 12 0l3-6c5-6 17-9 24-3 7 4 7 12 7 14 3 0 7 0 12 4 1 1 5 4 4 7z"/>
  <path fill="#e9f4f6" d="M649 490c-8 3-16 2-22-3a25 25 0 0 1-22-2 13 13 0 0 1-15 6c-4-1-6-3-7-4v5c1 5 6 7 8 8 5 3 11 1 12 0l6-3c3-1 6-1 19 2 8 2 10 4 16 3 0 0 8-2 8-6 1-3-2-5-3-6z"/>
  <path fill="#ceeaf0" d="M902 489c-1 2-8 19-27 24-16 4-29-4-31-6-10 10-32 15-43 6-1 0-11 6-23 2-8-3-12-9-13-11-1 1-3 2-4 5-2 5 0 9 0 10 5 9 19 9 21 9h1c6 0 7-2 16-2l15 2 21 2c40 3 45 1 49-1 8-4 12-10 13-11 2-2 8-12 6-24l-1-5z"/>
  <path fill="#f2f7f8" d="M414 461c-13 10-27 0-39 9-5 4-6 7-9 12-16 26-70 34-108 18-11-4-16-14-28-13-10 1-13 5-28 9-11 2-20 1-32 0-21-2-27-6-41-9-41-8-60 14-78 0-8-7-13-18-12-28 1-17 15-26 17-27 8-5 16-5 20-6 15 0 20 7 27 4s6-11 14-25c2-5 16-30 39-35 5-1 13-2 19 2 9 5 11 14 15 13 3-1 2-4 6-6s9-1 12 1c7 3 7 12 10 12 4 0 4-13 12-24 12-15 32-17 34-17 1 0 22-1 36 14 7 7 11 16 11 19 4 12 2 19 6 21 5 2 9-7 22-11a29 29 0 0 1 37 15c4 9 1 13 4 16 5 3 11-5 23-2 2 0 7 1 12 5 1 0 9 7 8 18 0 9-8 14-9 15z"/>
  <path fill="#fff" d="M301 509c-15 0-30-3-43-9-4-1-7-4-10-6-6-4-11-7-18-7l-13 4-15 5c-11 3-20 2-32 0-13-1-20-3-26-5l-15-4c-19-3-33 0-44 2-12 3-16 3-23 1-3 0-7-1-11-4-9-5-13-17-12-27 0-16 12-25 16-28 2-1 14-11 31-9 5 0 9 2 11 3-1-5-4-26 9-44 14-19 42-28 63-18 12 6 18 17 21 22 0-1 2-6 7-8 5-3 11 0 11 0 7 4 7 11 7 11 9-22 28-36 49-37a53 53 0 0 1 53 54c2-3 8-12 20-16 3-1 13-4 25 1 2 1 12 6 17 18 2 7 2 13 1 16a29 29 0 0 1 35 3c2 2 9 9 9 19-1 9-8 14-10 16-6 4-13 4-20 4s-13-1-19 4l-6 8-3 5c-7 12-24 21-45 24l-20 2zm-69-22c4 0 8 1 16 7l10 6c18 8 41 10 62 7 22-4 39-13 46-25l2-4c2-3 3-6 7-8 6-5 13-5 19-5 7 1 13 1 20-4 2-1 8-7 9-15 1-10-7-17-8-18-5-4-10-5-12-5-6-1-11 0-14 1-10 3-11 8-14 7-6-2-3-14-10-22-6-6-13-7-15-7-12-1-24 5-31 17-10-20-19-25-26-26-16-2-27 19-49 18-10 0-19-4-24-8-1 1-2 9-10 12-1 0-6 3-11 0-4-2-6-7-6-8 0 2-5 29-30 40a54 54 0 0 1-63-17c-2 4-6 9-12 11s-10-2-18-3c-11-1-25 5-30 17-5 13 5 28 15 35 7 3 12 4 23 4 18 0 64-4 66-4v1h3a133 133 0 0 0 55 5l8-2 7-3c5-2 10-4 15-4z"/>
  <path fill="#ceeaf0" d="M248 472c-13 1-25-3-32-7-5 6-14 15-25 14-9 0-10-7-20-10-16-5-23 9-55 14-13 2-20 4-29 0-11-3-15-11-25-12-7 0-14 4-19 7 2 3 5 8 10 12 12 11 26 12 36 14a183 183 0 0 0 62-10 243 243 0 0 0 74 14c16 1 43 3 78 1 24-1 40-3 55-14 6-4 10-8 12-11 4 1 13 3 23 0 12-4 23-16 21-23-1-2-4-4-23-5-30-1-37 5-56 3-25-2-24-12-40-9-21 2-26 19-47 22z"/>
  <path fill="#fff" d="M455 463a40 40 0 0 0-22-11c-9-1-16 2-19 4-2-2-15-16-36-16-20 0-32 11-35 14-2-2-7-3-12-3-12 1-19 11-19 12l-9-4c-3-1-11-3-18 0-3 1-9 3-10 8 0 0-1 4 1 7 4 5 15 2 18 2 26 0 178 16 183-5 0-2-1-6-3-8-6-5-16-1-19 0z"/>
  <path fill="#ceeaf0" d="m454 468-9-6c-8-3-14-2-18-1-30 5-32 10-44 9-16-1-20-11-39-11-7 0-13 0-19 3-6 2-10 5-13 7-5-2-16-6-28-1-2 1-8 4-8 6 1 6 36 3 88 8 0 0 79 8 106-4 2-1 7-4 7-7 0-2-3-3-5-4-7-3-15 0-18 1z"/>
  <path fill="#fff" d="M392 522c7-3 13-3 16-3 7 0 12 2 15 3a40 40 0 0 1 37-23c16 1 26 13 28 15 7 9 13 26 6 37-14 22-78 13-84 12-3 0-11-2-21 1-8 1-9 4-16 6-13 4-31 0-35-10-2-6 0-13 4-18 4-3 8-3 11-4h6l13 2c2-4 8-13 20-18z"/>
  <path fill="#e9f4f6" d="M489 570h-9l-14-3c-7 2-13 2-16 2-7 0-9-2-15-1-6 0-5 1-15 3h-15l-9-2c-4-1-11 1-25 2-7 1-11 1-15-2-1 0-3-2-4-5-2-5 1-10 2-10 3-5 7-6 12-7 9-2 17 0 22 2 0-2 3-12 14-17 7-3 14-2 17-2l10 4c6-3 14-7 24-9 6-1 14-2 23 1 2 1 8 4 12 10 3 4 4 8 4 10 2-2 5-8 12-12 1-1 9-5 19-2 7 2 11 7 12 8l4 9c4-3 10-3 14-1 2 1 6 5 5 8-1 5-16 8-26 7h-14l-5 1c-11 2-17 6-24 6z"/>
  <path fill="#ceeaf0" d="M480 572c-6-1-11-2-14-4a173 173 0 0 1-66 4l-22 1c-6 0-12 1-18-3l-2-2c3 0 8 0 14-2l14-6c4-1 10-3 18-1 1 1 5 3 10 3 11 1 18-8 18-9 3 1 6 2 10 1s6-4 11-6c3-1 6-3 11-3 8 0 14 3 16 4l7 5c5 3 10 5 13 5 12 3 24-10 26-11 1 4 3 6 4 6h16c3 0 7 2 7 4-1 4-13 7-21 7h-13l-6 1c-6 0-10 3-15 5-7 2-13 1-18 1z"/>
  <path fill="#e9f4f6" d="M1064 398c-3 3-8 4-9 5-5 0-6-2-11-1l-8 3-7 5-9 4c-9 3-22 1-33-4-7-4-9-7-13-6-5 0-7 4-14 4l-8-1-3-1c-6-2-11 4-18 3l-8-2c-15-6-24 3-34-3-4-3-8-8-7-13 0-7 10-12 17-11 6 0 7 3 11 2s5-5 9-11c4-5 9-9 12-10 14-7 28 6 36-1 4-3 1-7 6-13 7-8 16-9 16-9 1 0 11 0 18 7 3 3 4 6 5 9 3 8 1 11 4 13 4 5 13-6 27-4 11 1 18 10 19 11l4 9c1 2 2 9-2 15z"/>
  <path fill="#fff" d="m1007 362 7 12c7-4 13-6 18-6 7-2 14-3 21 0 6 2 9 7 11 10-1-3-4-13-14-18-6-3-12-3-14-3-6 0-10 1-11 2l-7 4c-1-3-2-10-8-16-2-3-7-9-17-11a25 25 0 0 0-26 12l-2 4c-3-2-12-7-24-6-3 1-17 3-26 16-4 6-5 12-6 16-1-1-5-3-9-3-2 0-9 0-14 5-5 6-5 14-5 14l3-7 7-5c5-2 10 0 11 0 5 2 8 5 9 6l6-10c4-6 12-16 22-17 6 0 10 2 15 3l9 5c3-4 9-11 18-14 3-2 7-4 11-3 7 1 12 7 15 10z"/>
  <path fill="#ceeaf0" d="m1030 411 7-5c7-6 19 2 26-5 3-2 5-6 5-9l-1-7c-1 1-1 5-4 8-1 1-5 6-12 5-5-1-8-3-9-4-2 2-7 5-14 5-5 0-8-1-12-3-6-2-10-5-12-7-1 1-7 7-17 7-12 1-19-9-20-10-2 5-6 8-10 7-3-1-5-4-5-5-3 9-11 14-19 13-8 0-13-6-14-7-2 3-6 5-9 4-4-1-6-5-6-6 0 1-4 8-11 9-5 0-9-3-10-3l4 6c9 8 29 3 35 5a34 34 0 0 0 6 1c8 1 12-2 18-1l3 1h8c7 0 8-1 12-2 5 0 8 2 13 4l19 6c15 2 28-6 29-7z"/>
  <path fill="#e9f4f6" d="M-33 592c3 4 7 5 9 5h10l8 3 8 5 8 4c9 2 22 1 33-4 8-4 9-7 14-6 4 0 6 3 13 4l8-1 3-1c6-2 11 4 19 3l7-2c15-6 24 3 34-3 5-3 9-8 8-13-1-7-10-12-18-12-5 1-7 4-11 3s-4-5-9-11l-12-11c-14-7-28 7-35 0-4-3-2-7-7-13-6-8-15-9-16-9s-10 0-17 7l-6 9c-3 8-1 11-3 13-5 4-14-7-28-4-11 1-18 10-19 11l-4 9c0 2-2 9 3 14z"/>
  <path fill="#fff" d="m23 557-7 12c-7-4-13-6-17-7-8-1-14-2-22 1-5 2-9 7-11 9 1-2 4-12 14-17 7-3 13-3 15-3l10 1 8 5c0-4 2-10 7-16 2-3 8-10 17-11a25 25 0 0 1 27 12l2 3c3-1 12-6 24-5 2 0 17 2 25 15 5 7 6 13 6 16l10-2c1 0 8 0 14 5 5 6 4 13 4 13s0-3-3-6c-3-4-6-5-7-5-5-2-9-1-11 0-5 1-8 4-9 6l-6-11c-4-5-11-15-22-16-5 0-10 1-14 3l-10 5c-3-5-9-11-17-15-4-1-8-3-12-2-7 1-12 6-15 10z"/>
  <path fill="#ceeaf0" d="M0 605c-4-2-3-2-6-5-8-5-19 2-27-4-2-2-4-6-4-10-1-2 0-5 1-6 0 1 1 5 4 8 0 1 5 6 12 5l8-4c3 2 8 5 14 5 5 0 8-2 13-3 5-2 9-5 12-8 1 2 7 8 17 8 12 0 19-9 19-10 2 5 7 8 10 7 4-1 5-4 5-5 4 8 12 14 20 13 8 0 13-6 14-7 2 3 5 4 9 4 4-2 5-6 5-6 1 1 4 7 11 8 6 1 10-2 10-2l-3 6c-9 8-30 3-35 5a34 34 0 0 1-7 1c-7 1-12-2-18-1l-3 1h-8l-12-2c-5 0-8 1-13 4-6 2-12 5-19 6-15 2-27-7-29-8z"/>
  <path fill="#e9f4f6" d="M1064 577c-7 7-18 5-20 5l-12 12c-18 12-41 6-50 4l-13-4c-2 1-8 5-17 4-6-1-10-3-12-5-14 7-25 9-32 9-12 1-26 2-35-7-1-1-8-9-7-19 1-1 2-10 8-14 5-3 10-3 11-3l7 1 4 2-2-4 1-5c1-3 5-3 6-3l6 2v-4c0-1 0-3 2-5 1-2 4-2 6-2 3 1 4 3 5 2 2 0 1-3 2-6 0-1 2-6 6-8s9 1 10 1c4 2 5 7 7 7s2-2 3-3h7c4 2 4 7 5 7 2 0 2-7 7-13 6-8 17-9 18-9 0 0 11-1 19 7 4 4 5 9 6 10 2 7 1 10 3 11 2 2 5-3 11-5 2-1 7-2 12 0s8 7 8 8c2 4 0 7 2 8 3 2 6-2 12-1l7 3s5 4 4 9c0 4-3 7-5 8z"/>
  <path fill="#fff" d="M1065 559c-1 0-3-2-7-2-3-1-5 0-7 1h-5l-1-3-1-5c0-1-2-6-8-8-5-2-10-1-12 0l-7 4c-2 1-3 2-4 1l-2-4-1-7c-1-2-2-6-6-10-8-8-19-7-19-7-10 0-15 6-18 9l-6 8-6-4-6 1-3 2c-1-1-2-4-6-7s-10-1-11-1a16 16 0 0 0-11 12h-4c-1 0-4 0-6 2s-2 5-2 6h-13c-3 1-8 2-12 5-10 5-13 17-13 17 1 0 2-4 6-6s9-2 13-1l6 3 2 1h6c6-1 8-7 8-8 2 0 7-1 11-5l3-7 5 3h9c7-2 9-8 9-9s3-3 6-3l5 2 4 6 3-7 5-8c4-8 15-9 15-10 1 0 12-1 20 6a29 29 0 0 1 7 17l2 4c1 1 2 0 4-1l7-4c2-1 7-2 12 0s8 7 8 8l1 5 1 3h5c2-1 4-2 7-1l7 3c4 3 4 9 4 9s0-6-4-10z"/>
  <path fill="#ceeaf0" d="M1067 563c-3-1-7 4-13 6-10 4-20 5-30 5-8-1-17-1-25-4s-15-8-23-7c-17 1-30 13-46 17-13 3-25-1-34-8l-6 3c-4 1-9 3-14 1s-7-6-8-8l-2 11s1 9 7 16c9 9 24 8 35 7 7 0 18-2 32-9a27 27 0 0 0 29 1l13 4c9 2 32 8 50-4l12-12c2 0 13 2 20-5 2-1 5-4 5-8 0 0 1-4-2-6z"/>
  <path fill="#fff" d="M980 553c7-2 13-1 15 0 5 1 8 3 11 5 0-2 1-11 10-17 8-6 18-3 19-2 11 3 15 13 16 14 1 0 8-1 14 2 2 1 8 6 8 13 0 8-9 12-9 13-7 3-15 1-21-5-4 5-8 8-11 10-23 16-54 3-57 2l-5-3c-3 2-9 6-18 5-3 0-13 0-17-8-2-4-1-10 2-13 3-5 8-6 10-7 8-1 14 4 14 5 2-3 7-12 19-15z"/>
</svg>