<svg viewBox="0 0 256 144" class="svgthemed"><path d="M131.7 22c1.6-.6 3.4-.1 4.9.6 1 .7 2 1.4 3.2 1.8l.3.6-.2.5c.8 1.8 1.4 4 .6 6-.6.7-1.5.8-2.3 1 0 1 .2 1.9.3 2.8 1.6.3 3-.8 4.6-.7l.6-2.7c.4.6.4 1.2.4 1.9l1.3.3v.7h21.1v1h.7V32h.7v3l.7.8.4-.6c.6.5.3 1.2.2 1.8h6l.6-.4.8.3h2.6v1.3c-1.2 0-2.3 0-3.4.2-.8-.6-1.7-.4-2.6-.5-1.4.1-2.8-.1-4 .3-.9.2-1.7.1-2.4-.3-.2.4 0 1.3-.6 1.3H158l-1 .6c-.5 1.2-1.6 2-2.6 2.7 0 1.8.6 3.4 1 5.2l-1.7.5c-.8 1.8-.3 4.2-2 5.5-1.4.7-2.3 2.5-4.1 2.2 1 .8-.3.5-.1-.1-3.3-.3-6.1-2.2-9-3.7l-.5 2.4c1 .2 2 1 2.1 2.1.4 2.4-.3 4.9-.3 7.3a6.6 6.6 0 0 1-1.3 3.9c-.7.8-1.7 0-2.5-.1l-.6 1 .7 3a32.3 32.3 0 0 1 4.7 6.4 85.8 85.8 0 0 1 3.4 8.2c.1.6.6.8 1 1l.2 1.7.6.7c0 3.5-.4 7-.9 10.3-.3 1.6.6 3.1.2 4.6 0 .8-.5 1.4-.7 2.1 0 1.7-.2 3.3 0 5 .1 1.2 1.2 2 1.8 2.8.8.8 1.4 2 2.6 2.2 1 .3 2 .8 3 1.4.3.7.2 1.4 0 2.2-2 .4-4 .2-6.1.2-1.6 0-3-.8-4.6-1-1.5 0-3.4.8-4.5-.6.5-1.9.5-3.9 1.4-5.6.3-2-.3-4-.1-6l-.7-.6c.1-1.3-.5-2.4-.8-3.7a124 124 0 0 0-.5-5.4c-.1-.9.3-1.7 1-2.3l.2-3c-.1-.7-.6-1.2-1-1.7-1.1.5-2.6.2-3.3-.9l-4.8-7c-.6 0-1.3 0-1.9-.3-.6-.7-1-1.6-1.4-2.4-.6.7-.6 1.7-1.3 2.4-1.6 1.5-2 3.7-2.8 5.6-.6 1.2-.3 2.7-1 4-.4.6-1.3.7-1.5 1.4-.4.8-.7 1.7-1.5 2.2-.8.5-1 1.5-1.4 2.4-.3.7.2 1.5 0 2.3-.5 2.6-2 4.7-2.8 7.2-.3 1-.7 2.3-2 2.6a11.9 11.9 0 0 0-1.5 8.8c.5 1 .5 2 .4 3-2.4.2-4.8.5-7-.1a5.4 5.4 0 0 1-.4-3.5c.7-3 1.6-6 2.2-9.1-.7-.7-.6-1.7-.5-2.5 0-1.6 1-2.9 1.8-4.2.3-1.4.1-2.8.8-4 .8-1.6 1.5-3.3 2.8-4.5.2-1.1 1-2 1.4-3 .3-1-.3-2-.1-2.9l1.2-8.7c-.8-.7-.6-1.9-.8-2.8l.5-1.2-.7-.6c.2-1 .2-2.8 1.8-2.5 0-3.4-1.1-6.7-.7-10.1l.6.7-.1-1.1a7.3 7.3 0 0 1 2.1-.8c-1.2-.1-2.4-.4-3.5-.7-.3-.8-.2-1.6 0-2.3.4-2.6.6-5.2.7-7.8 1.3-.5 2.8-.1 4-.7-.4-3.3-.5-6.7.7-9.8 1-2.7 2.7-5.3 5.5-6.2 1.3-.3 3-.7 4 .6l.7-.7c-2.1-4.3.4-10.4 5.2-11.3m17 18.3c-.5.4-1 .8-.4 1.4l-1 .5c-.4.3-1.4.5-1.3 1.2a17 17 0 0 1 1.3 2.6 9.8 9.8 0 0 0 2.6-3.4l.6-.6a5.8 5.8 0 0 0-.5-1.7h-1.2z"/><path d="M159 71.8a8.5 8.5 0 0 1 6.8-3h23.5c3.8 0 7.6 3 8 6.9h-32.5v21.7h25v-7.8h-12.4c-3.3-.1-5.8-3-6.5-6h26.5v13.3a8 8 0 0 1-7 7.4h-25.6c-2.6 0-4.8-1.6-6.3-3.6a9.8 9.8 0 0 1-1.3-4.9V78c0-2.1.4-4.4 1.9-6zm51.8-2.8c.9-.3 1.8-.3 2.7-.3h21.7c4.1.2 7.7 3.7 7.9 7.9v20a8 8 0 0 1-7.8 7.7h-24c-3.9-.4-7-4.2-7-8.1V78a9.5 9.5 0 0 1 1.2-5.2 8.3 8.3 0 0 1 5.3-3.8m1.2 6.4V98h23.4V75.4H212zM11.2 77.2c.1-4 3.5-7.9 7.7-8H42c4.2 0 7.7 3.7 8 7.8H20.7v19.7h29.4a8.7 8.7 0 0 1-8.1 8H21a9 9 0 0 1-5.1-.9 8.7 8.7 0 0 1-4.7-7.3V77.3zM57.4 74a8.3 8.3 0 0 1 7.4-4.8H88c4 0 7.5 3.5 7.8 7.5-10.1.2-20.3 0-30.5 0V83H88c2.2.1 4.6.8 6.1 2.6a8.4 8.4 0 0 1 2.5 6.1c0 2.3 0 4.5-.3 6.7a8.6 8.6 0 0 1-8 6.4h-22c-1.8.1-3.6-.1-5.1-1a8.4 8.4 0 0 1-4.5-6.6h31.1v-6.5h-23c-4.4 0-8.3-4-8.2-8.4.2-2.7-.4-5.6.9-8.2zm188.1-4h3a5.9 5.9 0 0 1-1.4.3 45.4 45.4 0 0 0-.1 3.1h-.4v-3.2h-1zm3.5 0h.8l1.1 2.8L252 70h.8c-.1 1.2.3 2.6-.4 3.8l-.1-3.4c-.5 1-.8 2.2-1.5 3.2-.5-1-.8-2.1-1.4-3.1v3h-.4V70z"/></svg>