<svg viewBox="0 0 256 144" style="background: #333"><path fill="#e9922d" d="m119 10.7-1.3 12.9c-6 1.2-11.6 3.5-16.8 6.9l-9.8-8.3a60 60 0 0 0-12.8 12.9l8.2 9.8a49.6 49.6 0 0 0-6.9 16.8L66.7 63a60 60 0 0 0 0 18.1l13 1.2c1.1 6 3.5 11.7 6.8 16.8l-8.2 9.9c3.7 5 8 9.3 12.8 12.8l9.8-8.2a49.6 49.6 0 0 0 16.8 7l1.2 12.8a60 60 0 0 0 18.2 0l1.1-12.7c6-1.3 11.8-3.7 17-7l9.7 8c5-3.6 9.4-8 12.9-12.7l-8.2-9.8a49.6 49.6 0 0 0 7-16.9l12.7-1.2a60 60 0 0 0 0-18.1l-12.7-1.1c-1.2-6-3.6-11.8-7-17l8.2-9.8a60 60 0 0 0-12.9-12.8l-9.8 8.2a49.6 49.6 0 0 0-16.9-7l-1.1-12.7c-6.2-1-12.4-.8-18.2 0zm9 35.2a26.1 26.1 0 1 1 0 52.2 26.1 26.1 0 0 1 0-52.2z"/></svg>