<svg viewBox="0 0 256 144"><defs><symbol id="c"><path d="M86 29.5c-1.7 0-3 2-4.4 3l.3-2.6h-6.6l-7 40H75l6-33.5c.4-1.3 3.6-2 3 .4l-6 33h7l6-33.4c.3-1.4 3.5-2.3 3 .3l-6 33h7l6.3-35.6c.8-4-2-4.7-2.7-4.7h-2.4c-2.5 0-3.4 1.5-4.6 2.6a3 3 0 0 0-3-2.6z" fill="#fff"/></symbol><symbol id="d"><path d="m104.7 30-7 40h6.6l7.2-40zm1.7-9.7L105 27h6.6l1.4-7z" fill="#fff"/></symbol><symbol id="b"><path d="M56.4 30 49 70h6.7l6-33.5c.4-1.3 3.6-2 3 .4l-2.4 14h7L72 34c.8-4-2-4.7-2.7-4.7H67c-1.7 0-3.3 1.4-4.5 2.5l.4-2z" fill="#fff"/></symbol><symbol id="e"><path d="M43.6 29.4s-2 .3-4 2-3 4-3 4l-1.4 9h6.6l1.7-8.5s.4-1.5 2-1.5 1 1.4 1 1.4-.3 6-3.4 8.6c-3 2.6-8 3-9 7-1 4-1.5 8-1.5 8s-.7 3-1.3 7.7c-.6 4.5 6 5.5 9.6.6v2.5H47l6-34.7s0-2-1.3-3.7c-1.4-1.4-4-2-4-2h-4.5zm.3 19.6v0L41.5 63c-.6 2.4-3.4 2-3 .3l2-11c0-1 2-2.3 3.7-3.4V49z" fill="#fff"/></symbol><symbol id="a"><path d="M206.6 109.7h7l-1 4.6h-13l1-5 10-14.7c1-1.3 1.5-4.7 2-8 0-1-1.4-1.7-2-.4l-1.4 6.6H204l1-7c.4-2.5 2-5 7.7-4.7 5.4.2 6 2 5.6 5l-1.5 8c0 1-.5 1.7-1 2.5z" fill="#fff"/></symbol></defs><path d="M21.5 18c-1.5 0-2 1-2.3 2l-8.7 49c0 1 0 3 1.5 3h7.7c1.5 0 2-1 2-2l4-22.3h7.6a7 7 0 0 0-1.5 3.4l-2.6 14c-.6 4 0 7 6.4 7.4a11 11 0 0 0-4.6 7.6l-1.3 8.3c-.7 5.3 5 12 6 13.6h-6.3c-2 0-2 1-2 2L25 117c-.7 11 17 11 22 3l-.4 2.7c0 1.3 1 2 2 2h6.8c.5 0 1-.3 1.3-.7.3.5.7.7 1 .7h7c1 0 1-.4 1.5-.7.3.5.7.7 1 .7h7c.6 0 1-.3 1.4-.7.4.5 1 .7 1.3.7h7c1 0 1.6-.3 2-2 2 3 6 3 9 1.4 0 .3.4.5 1 .5h7c.5 0 1-0 1-.5 0 .3.5.5 1 .5h7c1 0 1.4-.4 2-1.7 2.3 3 6.7 3 9.4 1 .3.6.7.7 1 .7h6.4c1 0 2-.1 2-1.7l.5-2c1 3 3.4 4 5.3 4h4c1 0 2 0 2.4-2 3.5 3.7 12 3.5 16-.7-.3 2.3.7 2.7 1.7 2.7h7c1 0 1.7-.4 2-1.6l3-18c0 .3.5.6 1 .6h7.6c1 0 1.5-.5 1.6-1.5l3-18c.8-4.7-5-7.7-10-5 0-.3-1-.4-1-.4h-7c-.6 0-1.4.4-2 1.5l-.3 1.5c-3-5-12-4-16-1.3 0-1-.3-1.5-1.7-1.7l1-5c0-1-.3-2-2-2.3h-6l8-43.4c0-1-.5-2.3-1.7-2.3h-7.3c-.5 0-1 .3-1 .6-1-1-6.6-2.5-10 2-.3-2-4.6-5-9.6-2-0-.4-.4-.4-.7-.5h-7.5l1.3-8c0-1-.4-2-1.5-2H106c-1 0-1.5 1-1.6 1.5l-1.3 7.4c-0 .5 0 1 .5 1-.4 0-1 .5-1 1v1c-1-2-6-5-11-1.4-3-2.7-6.4-1.5-8-.5l-1-.5h-7.3c-.7 0-1.4 0-2 2-1-2-4.5-3.6-9-1.5l-1-.4h-7c-1 0-1.7.4-2 2l-0 1.4c-2-4-8-4-12-3-4 1-7.7 4.4-8 9.4h-6.7l1.6-9h8c.7 0 1.4 0 1.7-1.4l1-6c.3-1 0-2.6-1.5-2.6H21.5zM61 52c.3.4.6.6 1 .6h7.3l-3 16.6c-0 2 1 2.5 2 2.5H75c.6 0 1-0 1.4-.7.4.4 1 .7 1.4.7h7c.5 0 1-0 1.5-.7.3.5.7 1 1.4.7h7c.5 0 1-0 1.3-.6.3.4.7.7 1.3.6h7c.3 0 .6 0 1-.5.3.3.6.5 1 .5h6l-1.5 9.3c-0-.3-.3-.3-.5-.3h-7c-.7 0-1.6.3-2 1-0-.5-.7-1-1.3-1h-7c-1.6 0-2 1-2 2-1-2-6-4-11-1a7.6 7.6 0 0 0-8-.6c-.3-0-.6-.4-1-.4H64l1-7c.3-1 0-2.6-2-2.5h-6L61 52zm61.7 19.7h.4c-.6 7.4 5 8.3 5.3 8.4-4.6 1-6 2.3-7.3 3.6l2-11c0-.3 0-.7-0-1zm-71.5 0H55L54 76c-.3-2-1.5-3-3-4zm89.3 6.3-.5 2.7c-2 0-2 1-2.4 2a6 6 0 0 0-3.4-2c2.7-.5 5-1.3 6.3-2.7zm-98 1.7c.5 0-.6 6.7-1 9-.3-.3-.4-1-.4-1.6 0 0 1-7.3 1.6-7zm8.7 12.7-2 11c-.6-2.7-3-6.5-5.6-10.7h6.6c.4 0 1-0 1-.3zM38 107c.5 0-.7 7.4-.7 7.4-0 1-.5 1-1 1.4 0-2 1-8.6 1.6-9z"/><path d="M209.4 70.6h34c1.7 0 2 1.6 2 2.4l-6 37.7c-1.7 10-8 14-15 14h-35c-1 0-2-.6-2-2l7-40.4a14 14 0 0 1 15-11.6z" style="fill:#4ccbfe"/><path d="M38 20H21l-9 49.7h7.4l4.4-24h9l1-6.4h-9l2.4-13h9zm76 10-7 40h6.6l6-33.5c.3-1.3 3.5-2 3 .4l-6 33h7l6.3-35.6c.7-4-2-4.7-3-4.7h-2.3c-2 0-3.6 1.7-4.4 3l.4-2.4zm23.5-.6-0 0c-2.7 0-5 2.5-5.4 4.3l-5 27c-1 6 7 5.7 9.5 2v.7l-2 9c-.7 3-3.5 1.7-3-0l1-5H126l-1 6c-.4 4 3 6 7 5.7 5.3-0 9-2 10-8.4l1-5.7 6.3-35h-6.7l-.4 2.5c-1.5-2-3-3-5-3zm2.3 5.7c1 0 1.7.6 1.6 1.4l-4 22c-.7 2-3.5 1.6-3-.5l3.7-21.3c.3-1 1-1.5 1.6-1.5zM43 91h7.4l1.6-10.3c.9-4.3-1-8.5-7.6-8.6-4.7-0-10 1.4-11.5 7.6l-1 5.5c-.6 3-.6 5.4 0 7.6 1.6 3.5 3.7 6.6 6 9.7 2 3.3 2 4.3 2 5.7-0 2.7-.6 5-1 7.4-1 4-5 2.5-4.7 0l2-11.5H29l-2 11c-2.6 11 16.6 11.4 19 1.7l1.6-9c.3-1.7.6-3.4-1-6.5L40 90c-.4-1-1-1.5-.5-5l1-5.6c.5-2 5-2.5 4.4.6zm71-17.7-8.4 49.7h6.7l8.4-50zM100 83h-6.7l-6 34.5c-2 9 8 6.3 9.5 3l-.4 2.5h6.6l6.6-40h-6.6l-5.6 33.6c-.4 1-3.4 2.4-3-.5zm62.3-.4-.6 0H158s-2.5 0-4.7 1.7a7 7 0 0 0-2.7 4l-1.5 9-3 18c-1 5.7 1 8 7 8.3 5 0 8.7-2.4 9.6-6.4l5-28.7s.4-2-1.3-4a7 7 0 0 0-4-2zm-3.3 5h.4c1.5 0 1 1.6 1 1.6s-2 12.7-4.7 28c0 1-.5 1.7-2 2-1 0-1.6-.4-1.4-2 1.5-9.4 3-19 5-28 0 0 0-1.4 1.6-1.4l.3-.2zm-16.3-11.7h7l-1.3 7h2.3l-1 5.5h-2l-4.6 27c-.3 1.7.1 2.6 1.7 2.3l-1 5h-4.4c-1 0-4-1-3.6-5l5-30h-2l1-5.4h2z" fill="#fff"/><use xlink:href="#a" transform="translate(15)"/><use xlink:href="#b"/><use xlink:href="#c"/><use xlink:href="#d"/><use xlink:href="#d" transform="translate(-49.5 53)"/><use xlink:href="#c" transform="translate(-11 53)"/><use xlink:href="#e"/><use xlink:href="#e" transform="translate(84 52.5)"/><use xlink:href="#b" transform="translate(114 53)"/><use xlink:href="#a"/></svg>