<?xml version="1.0" encoding="UTF-8" standalone="no"?>
<svg
   viewBox="0 0 256 144"
   class="svgthemed"
   version="1.1"
   id="svg4"
   xml:space="preserve"
   xmlns:xlink="http://www.w3.org/1999/xlink"
   xmlns="http://www.w3.org/2000/svg"
   xmlns:svg="http://www.w3.org/2000/svg"><defs
     id="defs8" /><g
     id="layer1" /><g
     id="layer2" /><image
     width="246.68539"
     height="112.90676"
     preserveAspectRatio="none"
     style="display:none;image-rendering:optimizeSpeed"
     xlink:href="../../../../../Downloads/Logo_Farming_Simulator_22.png"
     id="image3015"
     x="4.6573029"
     y="15.546619" /><g
     id="layer3"><path
       id="path6401"
       style="vector-effect:non-scaling-stroke;fill:#000000;stroke:none;stroke-width:1;stroke-linecap:butt;stroke-linejoin:miter;stroke-dasharray:none;stroke-opacity:1;-inkscape-stroke:hairline;fill-opacity:1"
       d="M 21.517578 18.119141 C 20.027579 18.108368 19.385046 18.858213 19.171875 19.992188 L 10.498047 69.023438 C 10.264559 69.964316 10.549134 71.814827 11.998047 71.841797 L 19.675781 71.841797 C 21.214923 71.880517 21.5148 70.951785 21.746094 69.96875 L 25.738281 47.738281 L 33.337891 47.738281 C 32.504012 48.825628 31.942079 49.93583 31.814453 51.082031 L 29.191406 65.123047 C 28.626962 69.02211 29.237788 72.284362 35.554688 72.451172 C 33.261848 74.100231 31.598196 76.490964 30.953125 80.082031 L 29.701172 88.373047 C 29.014453 93.66327 34.695603 100.64963 35.488281 101.99609 L 29.171875 102.00781 C 27.248927 101.96759 27.146013 103.01901 26.992188 103.87891 L 25.070312 116.99805 C 24.31056 128.03876 42.224439 128.12559 46.751953 120.16406 L 46.384766 122.88086 C 46.230397 124.18244 47.564595 124.74461 48.490234 124.73438 L 55.208984 124.73438 C 55.741566 124.71844 56.125955 124.43218 56.451172 124.04297 C 56.766649 124.49461 57.161093 124.71403 57.632812 124.70703 L 64.736328 124.70703 C 65.549679 124.70359 65.83172 124.34047 66.185547 124.02734 C 66.506661 124.49086 66.914569 124.71766 67.402344 124.72266 L 74.580078 124.72266 C 75.195829 124.72694 75.62405 124.40564 76.007812 124.00781 C 76.370938 124.4738 76.805014 124.70903 77.308594 124.70703 L 84.285156 124.70703 C 85.15796 124.73573 85.893203 124.35938 86.238281 122.83594 C 88.38341 125.67054 92.400009 125.90813 95.425781 124.24414 C 95.541879 124.54417 95.849349 124.70145 96.386719 124.68945 L 103.61914 124.68945 C 104.0691 124.70179 104.4172 124.54055 104.64648 124.17773 C 104.84283 124.47368 105.10714 124.67945 105.52344 124.68945 L 112.83984 124.68945 C 113.57705 124.713 114.21877 124.30358 114.67578 123.03516 C 116.98091 125.94061 121.35006 125.79368 124.06641 124.03125 C 124.36527 124.57084 124.79988 124.71884 125.28516 124.71484 L 131.70117 124.71484 C 132.61152 124.72513 133.46353 124.57444 133.78711 122.97656 L 134.1582 120.76758 C 135.13233 123.93853 137.64279 124.67783 139.48047 124.67383 L 143.51953 124.71484 C 144.48684 124.71858 145.45763 124.73491 145.88672 122.62891 C 149.39516 126.39408 157.90026 126.24116 161.81836 121.95898 C 161.63281 124.27745 162.58306 124.68612 163.56445 124.69922 L 170.47461 124.72266 C 171.48221 124.75967 172.1714 124.30362 172.36328 123.08398 L 175.49609 104.94141 C 175.68558 105.23553 175.96676 105.52752 176.33984 105.51562 L 183.86133 105.51172 C 184.72544 105.48766 185.38118 104.97617 185.53906 103.95898 L 188.32422 86.214844 C 189.11876 81.546722 183.34752 78.49582 178.35742 81.257812 C 178.21041 80.911134 177.51939 80.800269 177.17188 80.792969 L 170.30078 80.810547 C 169.7365 80.789543 168.87566 81.194079 168.53125 82.316406 L 168.17383 83.839844 C 165.25961 79.025249 156.2677 79.560911 152.4043 82.515625 C 152.33615 81.616167 152.05341 80.962219 150.67188 80.785156 L 151.49023 75.900391 C 151.62109 74.763583 151.15794 73.664122 149.64453 73.601562 L 143.41406 73.585938 L 151.19531 30.21875 C 151.39859 29.040416 150.73404 27.922254 149.54102 27.902344 L 142.16211 27.927734 C 141.7296 27.931701 141.41168 28.178524 141.13281 28.511719 C 140.2026 27.539819 134.56002 25.968628 131.39453 30.630859 C 131.05721 28.770077 126.81804 25.708918 121.79688 28.394531 C 121.68523 28.043116 121.40097 27.950644 121.07031 27.927734 L 113.60352 27.927734 L 114.94336 20.072266 C 115.13845 19.198459 114.4973 18.120449 113.4043 18.130859 L 105.96094 18.142578 C 104.8939 18.114982 104.51447 19.28153 104.44727 19.640625 L 103.08984 26.964844 C 102.96768 27.453332 103.17679 27.858692 103.55273 28.222656 C 103.17848 28.381323 102.80533 28.678372 102.73633 29.294922 L 102.62305 30.357422 C 101.62911 28.181994 96.943097 25.49365 91.548828 28.951172 C 88.523883 26.336168 85.080526 27.508532 83.507812 28.486328 L 82.548828 27.957031 L 75.214844 27.957031 C 74.468935 27.946877 73.755984 28.135105 73.292969 29.822266 C 72.077711 27.993114 68.703958 26.229014 64.125 28.304688 L 63.429688 27.908203 L 56.238281 27.908203 C 55.256927 27.898501 54.508369 28.294769 54.318359 29.669922 L 54.09375 31.085938 C 51.853974 27.338922 46.170974 26.883426 42.21875 27.888672 C 37.965802 28.970406 34.524196 32.273412 34.130859 37.337891 L 27.529297 37.337891 L 29.097656 28.394531 L 36.939453 28.394531 C 37.621615 28.415575 38.258342 28.25464 38.601562 26.919922 L 39.685547 20.671875 C 39.918793 19.733777 39.625387 18.107808 38.105469 18.142578 L 21.517578 18.119141 z M 60.953125 52.03125 C 61.256255 52.47243 61.628653 52.718398 62.09375 52.703125 L 69.34375 52.71875 L 66.359375 69.34375 C 66.101579 71.128798 67.115876 71.838472 68.460938 71.8125 L 75.078125 71.8125 C 75.687544 71.8194 76.192339 71.633132 76.53125 71.140625 C 76.899849 71.540845 77.319799 71.826959 77.875 71.8125 L 84.886719 71.8125 C 85.364061 71.8409 85.848801 71.703591 86.355469 71.130859 C 86.675304 71.570847 87.111635 71.853552 87.769531 71.837891 L 94.664062 71.837891 C 95.241339 71.858641 95.699541 71.653822 96.011719 71.173828 C 96.300193 71.562554 96.671985 71.858763 97.326172 71.837891 L 104.30859 71.837891 C 104.61387 71.824081 104.90825 71.839145 105.42578 71.330078 C 105.71391 71.622133 106.04518 71.847233 106.51953 71.849609 L 112.59375 71.849609 L 110.96875 81.0625 C 110.85734 80.840641 110.69464 80.753383 110.5 80.75 L 103.45312 80.75 C 102.7862 80.76534 101.85626 81.064622 101.73438 81.625 C 101.56087 81.092768 101.03131 80.812618 100.44531 80.78125 L 93.574219 80.78125 C 91.997944 80.77205 91.529248 81.844894 91.484375 82.734375 C 90.664486 80.846382 85.56663 78.714395 80.75 81.78125 C 80.338444 81.26559 76.585497 79.099358 72.65625 81.203125 C 72.405116 80.950638 72.10529 80.815011 71.75 80.8125 L 63.96875 80.859375 L 65.21875 73.625 C 65.527099 72.387401 65.212744 71.042727 63.421875 71.09375 L 57.53125 71.09375 L 60.953125 52.03125 z M 122.6875 71.828125 L 123.125 71.84375 C 122.51964 79.170386 127.92087 80.090193 128.375 80.21875 C 123.80307 81.229439 122.4791 82.53013 121.125 83.828125 L 122.90234 72.554688 C 122.95324 72.336471 122.87624 71.942178 122.6875 71.828125 z M 51.154297 71.859375 L 54.966797 71.859375 L 54.039062 76.146484 C 53.730164 74.228306 52.535629 72.973228 51.154297 71.859375 z M 140.46875 78.078125 L 140.03125 80.8125 C 137.88505 80.72655 137.89861 81.871435 137.60938 82.84375 C 136.85143 81.959957 135.83274 81.218946 134.20312 80.8125 C 136.91471 80.343201 139.0485 79.463858 140.46875 78.078125 z M 42.742188 79.773438 C 43.231227 79.843631 42.07743 86.520371 41.513672 88.578125 C 41.202443 88.316932 41.063651 87.817547 41.144531 86.978516 C 41.144531 86.978516 42.253142 79.703241 42.742188 79.773438 z M 51.4375 92.46875 L 49.484375 103.5 C 48.768856 100.79472 46.526093 96.99854 43.78125 92.84375 L 50.421875 92.84375 C 50.803519 92.878926 51.248544 92.694787 51.4375 92.46875 z M 37.970703 107.13477 C 37.974632 107.13484 37.97862 107.13605 37.982422 107.13672 C 38.469087 107.22184 37.263672 114.48047 37.263672 114.48047 C 37.080039 115.30315 36.79101 115.73506 36.414062 115.88672 C 36.515482 113.78891 37.465115 107.25906 37.958984 107.13672 C 37.962904 107.13575 37.966774 107.13469 37.970703 107.13477 z " /><path
       style="vector-effect:non-scaling-stroke;fill:#4ccbfe;stroke:none;stroke-width:1;stroke-linecap:butt;stroke-linejoin:miter;stroke-dasharray:none;stroke-opacity:1;-inkscape-stroke:hairline;fill-opacity:1"
       d="m 209.41107,70.606694 34.02024,-0.04419 c 1.65019,0.013 2.12643,1.631027 1.94524,2.446964 l -6.10929,37.696946 c -1.64063,10.1884 -8.21666,13.96535 -14.84925,13.96535 h -34.90234 c -1.07773,-0.0219 -2.18491,-0.5546 -1.99979,-2.12132 l 6.98268,-40.305083 c 0.45924,-2.323538 2.80432,-11.562552 14.91251,-11.638663 z"
       id="path6559" /><path
       id="path6590"
       style="vector-effect:non-scaling-stroke;fill:#ffffff;stroke:none;stroke-width:1;stroke-linecap:butt;stroke-linejoin:miter;stroke-dasharray:none;stroke-opacity:1;-inkscape-stroke:hairline;fill-opacity:1"
       d="m 221.56801,109.71204 h 7.00478 l -0.86179,4.552 h -13.21406 l 0.7955,-5.10443 9.8553,-14.628272 c 1.02132,-1.332032 1.58542,-4.741522 2.2058,-8.118324 0.20478,-0.906594 -1.41602,-1.641517 -1.74567,-0.34352 l -1.38821,6.605688 h -5.56847 l 1.20429,-7.126311 c 0.44517,-2.51267 1.79019,-4.886465 7.73399,-4.728775 5.34786,0.141879 6.16838,2.183437 5.6237,4.982893 l -1.5026,7.999145 c -0.20954,0.88363 -0.49196,1.745396 -0.99436,2.541165 z m -14.78347,0 h 7.00478 l -0.86179,4.552 h -13.21406 l 0.7955,-5.10443 9.8553,-14.628272 c 1.02132,-1.332032 1.58542,-4.741522 2.2058,-8.118324 0.20478,-0.906594 -1.41602,-1.641517 -1.74567,-0.34352 l -1.38821,6.605688 h -5.56847 l 1.20429,-7.126311 c 0.44517,-2.51267 1.79019,-4.886465 7.73399,-4.728775 5.34786,0.141879 6.16838,2.183437 5.6237,4.982893 l -1.5026,7.999145 c -0.20954,0.88363 -0.49196,1.745396 -0.99436,2.541165 z M 142.81785,75.587418 h 6.78859 l -1.28749,7.022677 h 2.24725 l -1.07681,5.477689 H 147.406 l -4.54133,27.130946 c -0.28918,1.6526 0.15822,2.54365 1.70885,2.29407 l -0.7959,5.14997 h -4.36577 c -1.02135,0.0394 -4.16613,-0.76942 -3.61667,-4.78713 l 4.91587,-29.764447 h -1.87272 l 0.86613,-5.430871 h 1.96635 z m 19.07082,6.764144 -3.72461,0.01172 c 0,0 -2.49676,0.196058 -4.68359,1.722657 -2.18683,1.5266 -2.68164,4.070311 -2.68164,4.070312 l -1.49024,8.888672 -3.14062,17.917967 c -1.02186,5.76504 1.16494,8.14997 6.78515,8.30469 5.0591,0.13928 8.70479,-2.32951 9.63086,-6.40235 l 4.80664,-28.642573 c 0,0 0.39009,-1.984668 -1.30273,-3.984375 -1.47191,-1.738759 -4.19922,-1.886719 -4.19922,-1.886719 z m -2.75195,4.75 c 0.10257,-0.0019 0.21258,0.0016 0.32812,0.01172 1.53296,0.134567 1.13282,1.607422 1.13282,1.607422 0,0 -1.86948,12.638736 -4.65821,27.914066 -0.15308,0.93024 -0.52211,1.80267 -1.88281,1.84179 -0.83455,0.024 -1.55831,-0.33315 -1.37109,-1.88867 1.54473,-9.52343 3.02955,-18.949227 4.79101,-28.166014 0,0 0.12166,-1.292417 1.66016,-1.320314 z m -59.03125,-4.376953 -6.66797,0.0078 -5.839844,34.509771 0.01172,-0.002 c -1.874789,9.05961 8.101711,6.24287 9.474609,3 l -0.402343,2.4336 h 6.636718 l 6.61914,-39.949224 -6.66797,0.0078 -5.529295,33.523434 c -0.414054,1.12358 -3.476654,2.48177 -3.201172,-0.46484 h 0.002 z m 70.45262,-0.01122 -6.8114,39.974551 h 6.6376 l 5.7797,-33.504976 c 0.30378,-1.309972 3.50083,-2.215519 2.99318,0.316995 l -2.28626,14.117611 h 6.78859 l 2.64898,-16.534384 c 0.77399,-4.247204 -2.15956,-4.754557 -2.75055,-4.752012 h -2.31749 c -1.63134,0.03099 -3.21747,1.412213 -4.43599,2.504755 l 0.42136,-2.130212 z m -42.16964,-0.350173 c 0,0 -2.49725,0.195324 -4.68408,1.721924 -2.18683,1.526602 -2.6814,4.071044 -2.6814,4.071045 l -1.49013,8.888671 6.58789,0.0332 1.92006,-8.492187 c 0,0 0.20269,-1.442555 1.60606,-1.406446 0.98937,0.02546 0.84443,1.358448 0.84443,1.358448 0,0 -0.0423,5.757053 -3.14551,8.375685 -3.10323,2.618631 -8.08557,3.094364 -8.95478,7.134074 -0.86922,4.03972 -1.30723,7.79605 -1.30723,7.79605 0,0 -0.66887,3.19009 -1.27539,7.71289 -0.60652,4.52279 5.93679,5.48965 9.61719,0.66211 -9.1e-4,0.96858 0,2.46679 0,2.46679 l 6.35547,0.0332 5.83439,-34.496434 c 0,0 0.39011,-1.98421 -1.30271,-3.983919 -1.47191,-1.738761 -4.20063,-1.886818 -4.20063,-1.886818 z m 0.15776,19.623974 -2.25347,13.86626 c -0.60834,2.38001 -3.42332,2.07627 -3.23046,0.30274 l 1.91211,-10.8125 c 0.0679,-1.10134 1.74148,-2.23367 3.57182,-3.3565 z m -14.23458,-29.06041 -8.37562,49.7737 h 6.6376 l 8.40575,-49.781372 z m -27.325302,9.403298 -1.849609,0.0078 c -2.606521,0.09593 -3.510549,1.299197 -4.705078,2.816406 -0.334097,-2.390504 -2.35282,-2.72472 -2.832032,-2.722656 H 75.28125 c -1.631341,0.03099 -3.170157,1.858631 -4.388672,2.951171 l 0.375,-2.576171 -6.667969,0.0078 -6.666015,39.910162 h 6.636718 l 5.634766,-33.441412 c 0.303782,-1.309971 3.50179,-2.214152 2.994141,0.318359 l -5.546875,33.089853 h 6.789062 l 5.583985,-33.560556 c 0.672807,-1.600752 3.463344,-1.682472 2.990234,0.677735 L 77.46875,122.72266 h 6.789062 l 5.953126,-35.650394 c 0.773989,-4.2472 -2.633623,-4.744733 -3.22461,-4.742188 z m -43.796862,8.519959 h 7.373811 l 1.662034,-10.253109 c 0.844703,-4.25078 -0.927325,-8.517298 -7.658813,-8.635661 -4.702261,-0.08268 -10.079922,1.461645 -11.461086,7.645915 l -1.011776,5.531077 c -0.639632,2.791435 -0.585576,5.322737 0.187271,7.584492 1.588096,3.522176 3.758384,6.568014 5.805413,9.714699 1.933518,3.26604 1.783792,4.30003 1.942941,5.66496 -0.102148,2.65434 -0.561146,4.99644 -1.006584,7.35041 -1.03221,4.05228 -5.120486,2.58532 -4.666895,0.0237 l 1.974869,-11.49407 H 28.95684 l -1.872714,11.23629 c -2.698254,11.12521 16.491698,11.35681 18.914411,1.68544 l 1.638625,-8.87198 c 0.239044,-1.73926 0.555946,-3.4192 -1.006584,-6.53109 L 39.912217,89.890271 C 39.469915,88.98851 38.887566,88.43382 39.420629,85.11485 l 1.123629,-5.594733 c 0.478882,-2.065095 4.883525,-2.538912 4.400877,0.538405 z m 13.542497,-17.805482 -1.29111,6.910715 h 6.6376 l 1.32124,-6.918387 z M 54.976407,82.743654 48.38847,122.6851 h 6.637596 l 6.618071,-39.949118 z m 51.414073,-62.581846 -1.29111,6.910715 h 6.6376 l 1.32124,-6.918387 z m 31.05093,9.232723 c -2.7273,0.03224 -5.09326,2.499277 -5.45118,4.273438 l -4.80078,26.947265 c -0.99834,5.850147 6.79584,5.790729 9.55078,2.080078 l -0.13085,0.734376 -1.79688,8.857421 c -0.72321,3.038452 -3.50543,1.701102 -3.13672,-0.234375 l 0.8418,-4.845703 -6.60156,0.02344 -0.81055,6.015625 c -0.37731,4.003795 3.05646,5.800183 7.16211,5.630859 5.36934,-0.221441 8.88819,-2.11729 9.83203,-8.365234 l 0.89648,-5.671875 6.28907,-34.970703 -6.66797,0.0078 -0.44141,2.460938 c -1.49102,-2.170917 -3.171,-2.961843 -4.73437,-2.94336 z m 2.39648,5.603516 c 0.8241,-0.01314 1.62844,0.57762 1.60352,1.439453 l -3.91211,21.847656 c -0.72538,2.10477 -3.49486,1.640179 -3.10547,-0.458984 l 3.81055,-21.335938 c 0.21595,-1.048852 0.91318,-1.481179 1.60351,-1.492187 z m -25.92624,-5.120587 -7.15073,39.924894 h 6.63759 l 6.11903,-33.455319 c 0.30379,-1.309972 3.50084,-2.215519 2.99319,0.316995 l -5.93612,33.153116 h 6.78859 l 6.29884,-35.569889 c 0.77399,-4.247204 -2.15957,-4.754557 -2.75055,-4.752012 H 124.594 c -2.07826,0.04754 -3.63412,1.691457 -4.38917,2.783999 l 0.37454,-2.409456 z m -9.29916,0 -7.150726,39.924894 h 6.637596 l 7.18086,-39.932566 z M 86.0625,29.496094 c -1.631341,0.03099 -3.170157,1.856678 -4.388672,2.949218 l 0.375,-2.576171 -6.667969,0.0078 -7.15039,39.925781 h 6.636719 l 6.11914,-33.455078 c 0.303782,-1.30997 3.50179,-2.216105 2.994141,0.316406 l -5.9375,33.152344 h 6.789062 l 5.921875,-33.445312 0.01758,-0.02344 c 0.303782,-1.30997 3.499837,-2.216105 2.992188,0.316406 l -5.935547,33.152344 h 6.789063 l 6.29883,-35.568359 c 0.77398,-4.2472 -2.159016,-4.754498 -2.750002,-4.751953 h -2.31836 c -2.586908,0.09521 -3.483367,1.495817 -4.664062,2.580078 -0.39492,-2.256608 -2.333575,-2.582099 -2.802735,-2.580078 z M 56.278872,29.87746 49.128145,69.802354 h 6.637596 L 61.88477,36.347035 c 0.303782,-1.309972 3.500833,-2.215519 2.993183,0.316995 l -2.493169,14.051405 h 6.788588 l 2.85589,-16.468178 C 72.803256,30.000053 69.8697,29.4927 69.278713,29.495245 H 66.961229 C 65.329886,29.526232 63.743754,30.907458 62.525238,32 l 0.42136,-2.130212 z m -18.373396,-9.782592 -16.751241,0.0331 -8.805988,49.674381 h 7.382463 l 4.320231,-24.050942 8.855646,0.03311 1.175236,-6.389307 -8.971515,-0.0331 2.367024,-12.87793 h 9.170145 z m 5.694133,9.385601 c 0,0 -2.000671,0.278087 -4.1875,1.804687 -2.186827,1.526602 -2.929687,3.988281 -2.929687,3.988282 l -1.457031,8.888671 6.58789,0.0332 1.638672,-8.492187 c 0,0 0.401492,-1.514668 1.804688,-1.472656 1.403195,0.04201 1.076171,1.375 1.076171,1.375 0,0 -0.37333,5.98879 -3.476562,8.607422 -3.103232,2.618631 -7.986254,2.862628 -8.855469,6.902343 -0.869215,4.039715 -1.505859,7.845704 -1.505859,7.845704 0,0 -0.668866,3.190097 -1.275391,7.71289 -0.606524,4.522793 5.936789,5.489657 9.617188,0.66211 -9.07e-4,0.968581 0,2.466796 0,2.466796 l 6.355469,0.0332 6.173828,-34.777344 c 0,0 0.09624,-2.166997 -1.291016,-3.609375 -1.387252,-1.442378 -3.755859,-1.96875 -3.755859,-1.96875 z m 0.339844,19.607422 -2.435547,13.882812 c -0.608343,2.380012 -3.423324,2.076266 -3.230468,0.302735 l 1.912109,-10.8125 c 0.06794,-1.101333 1.923565,-2.250222 3.753906,-3.373047 z" /></g></svg>
