<svg xmlns="http://www.w3.org/2000/svg" viewBox="0 0 256 144" fill="#fff">
  <path fill="#d60000" d="m68.6 49.2-6.8 32.7h6l3.2-15 9.5 15h6.8L77.1 65.6l15.5-16.4H85L71.8 63.4l2.7-14.2h-6m29.2 0L91 81.9h21.3l1.2-5.1H98.2l1.8-9h12.4l1.2-5.3h-12.4l1.7-8.2h14.3l1.1-5.1zm27.3 0-6.7 32.7h6l2.7-12.7h3.8l6.6 12.7h6.6l-7.2-13.5s9.7-1.7 9.7-10.3c0-9-9-9-9-9zm5 5.1h6.8s3.6 0 3.6 3.7c0 5.7-7.2 6-7.2 6H128zm25-5.1-6.8 32.7h10.1s16.2 0 16.2-10.5c0-5.5-4.5-6.3-4.5-6.3s5.8-2 5.8-8c0-8-9.9-8-9.9-8zm5 5.1h6s3.7.3 3.7 3.3c0 4.5-5.1 5-5.1 5h-6.3zm-2.9 13.4h7.5s3.7 0 3.7 3.3c0 5.8-8.3 5.8-8.3 5.8h-4.7zm36.7-18.5-18 32.7h6.6l4.4-8.3h11.7L200 82h6.1l-6.6-32.7zm1.7 8 2 11.2h-7.8zm22.2-8L211 81.9h21.4l1-5.1H218l5.8-27.6h-6"/>
    <path fill="#d60000" d="m50.4 54.6-1 .7-3.8 18.6.6.5c-3.9 10.3-10 13.6-28 14.5-4.3.2-8.6.5-12 1.6 5.4 0 10.6-.2 16.1.3 6.7.5 12.5 1.1 14.2 2.8 3.5 3.4 2.1 13.1.5 23 1.5-4 5.1-16.8 14-22.7 4.6-2.2 18-2.3 30.2-2.7 55.7-.7 112-.8 168.4-.7-2.5-.7-8.6-1.2-21.1-1.6-49.1-.3-98.5.1-147-1.4-26.1-1.5-31-1.8-29.3-12l.8-.4L56.7 57l-.5-1 3.4-17.1-1.1-6.6.2-.9h-.3l.8-4.1-.4-.1-.8 4h-.4l-.2.8-3.7 5.9z"/>
    <path fill="#d60000" d="m48 55.7-1.7 2L43 73.2 41.7 76l3.9.8-.2-3.1L48.6 58Zm10.1 2-1.7 2-3.2 15.7-1.4 2.5 4 .8-.3-3L58.7 60z"/>
    <path d="M59.4 107.6q-3.6 0-3.6-2.8l1.5-.3q0 1 .6 1.5t1.7.5q1.3 0 2-.5.8-.5 1-1.4v-.4q0-.4-.3-.7-.2-.3-.6-.5l-1.7-.5-1.5-.5q-.5-.2-.7-.5-.3-.2-.4-.6-.2-.3-.2-.7 0-.7.3-1.3.3-.7.9-1.2.5-.5 1.3-.7.8-.2 1.8-.2 1.7 0 2.4.5.8.6.9 2l-1.5.3q0-1-.5-1.3-.5-.4-1.5-.4-2.2 0-2.5 1.7v.3l.1.6.5.4.7.2 1 .3 1.8.7q.6.2.9.7.3.4.3 1.1 0 .8-.3 1.5-.4.7-1 1.2t-1.4.8l-2 .2zm14.6-4.1h-2l-.8 4h-1.5l2-10.6h3.6q1.7 0 2.5.7.9.6.9 1.8 0 1-.6 2t-1.6 1.5q-1 .6-2.3.6zm3-3.9q0-1.5-2.2-1.5H73l-.8 4.2h2q.9 0 1.6-.4.6-.3 1-1 .4-.6.4-1.3zm13.1 7.9-.5-3h-4.4l-1.6 3H82l6-10.6h1.8l1.8 10.6zM88.7 98l-.7 1.2-2.2 4h3.7l-.6-3.9zm10.3 6q0 2.4 2.1 2.4.8 0 1.6-.5.7-.6 1.4-1.7l1 .5q-1.6 3-4.2 3-1.7 0-2.6-1-.8-1-.8-2.7 0-1.3.4-2.8.4-1.5 1-2.5.8-1 1.7-1.4 1-.5 2.3-.5 2.6 0 3.1 2.6l-1.4.5q-.1-1-.6-1.4-.6-.5-1.3-.5-.9 0-1.5.4-.7.4-1.1 1.2-.5.8-.8 2-.3 1.3-.3 2.3zm11.7 3.5 2-10.6h7.2l-.2 1.2H114l-.6 3.3h5.2l-.2 1.2H113l-.7 3.6h6l-.2 1.3zm31.9-4h-2.2l-.8 4h-1.5l2-10.6h3.7q1.6 0 2.4.7.9.6.9 1.8 0 1-.6 2t-1.6 1.5q-1 .6-2.3.6zm3-3.9q0-1.5-2.3-1.5h-1.9l-.8 4.2h2q.9 0 1.6-.4.7-.3 1-1 .4-.6.4-1.3zm12.4 7.9-2-4.5h-1.8l-.9 4.5h-1.5l2-10.6h3.8q1.7 0 2.5.6t.8 1.7q0 .8-.4 1.6t-1.2 1.3q-.8.5-1.8.7l2.2 4.7zm1.3-8q0-1.4-2-1.4H155l-.7 3.7h2.2q.9 0 1.5-.3t1-.9l.2-1.1zm9.7 8.1q-1.6 0-2.4-.9-.7-.9-.7-2.6 0-1.2.3-2.7.4-1.5 1.1-2.6.7-1 1.7-1.5t2.1-.5q1.6 0 2.4.8.8.9.8 2.6 0 1.2-.4 2.7-.4 1.5-1 2.6-.8 1-1.8 1.6-1 .5-2 .5zm3.7-7.3q0-2.3-1.8-2.3-1 0-1.8.8-.8.7-1.2 2.3-.5 1.6-.5 2.9 0 2.4 1.8 2.4.8 0 1.4-.4.6-.4 1-1.3.5-.9.8-2.1.3-1.3.3-2.3zm10.3 7.3q-1.6 0-2.5-1-.8-.9-.8-2.7 0-1.2.4-2.7.4-1.5 1-2.5.8-1 1.7-1.4 1-.5 2.2-.5 2.7 0 3.1 2.5l-1.4.5q-.3-1.8-1.9-1.8-.8 0-1.4.4-.7.4-1.1 1.1l-.8 2.1q-.3 1.3-.3 2.3 0 2.5 2 2.5l1.2-.2q.6-.1 1-.4l.5-2.6h-2.3l.3-1.2h3.7l-.8 4.4q-2 1.2-3.9 1.2zm16.1-.1-2-4.5h-1.8l-.9 4.5H193l2-10.6h3.8q1.7 0 2.5.6t.8 1.7q0 .8-.4 1.6t-1.2 1.3q-.8.5-1.8.7l2.2 4.7zm1.3-8q0-1.4-2-1.4h-2.2l-.7 3.7h2.2q.9 0 1.5-.3t1-.9l.2-1.1zm13 8-.5-3h-4.4l-1.6 3h-1.5l6-10.6h1.7l1.8 10.6zM212 98l-.7 1.2q-.2.6-2.1 4h3.6l-.6-3.9zm14.4 9.5 1.3-6.8.5-2.4-.4.9-.8 1.4-2 3.4h-1l-.6-3.4q-.2-.6-.3-2.3l-.5 2.4-1.3 6.8h-1.2l2-10.6h1.9l.7 3.8.1 1.9.4-.8.5-1 2.2-3.9h1.8l-2 10.6z" />
</svg>