<svg xmlns="http://www.w3.org/2000/svg" xml:space="preserve" viewBox="0 0 256 144">
  <path fill="#ed6516" d="M105.2 32a32.3 32.3 0 0 1 45.6 0l9-9a45 45 0 0 0-64 0z"/>
  <path fill="#fff" d="m162.6 25.5-9 9a32.3 32.3 0 0 1 2.3 36.5L139 54.6l-9-21.3h-.1v29L148 80a32.3 32.3 0 0 1-40 0l18-18V33.5L117 54.6l-16.7 16.6a32.3 32.3 0 0 1 2.3-36.5l-9-9a45 45 0 1 0 69 0z"/>
  <rect width="22" height="26" x="227" y="109" fill="#f06414" rx="2.5"/>
  <path fill="#fff" d="m235.8 127 6.4-6a8.3 8.3 0 0 0 1-1 3.7 3.7 0 0 0 1-2v-1.5a3.6 3.6 0 0 0 0-.7 3.7 3.7 0 0 0-0-.7l-11 10.3a14.3 14.3 0 0 0-1 1 3.3 3.3 0 0 0-.7 2v2.3h11a2 2 0 0 0 1-.4 3 3 0 0 0 1-2.5v-1Zm7-13.5a2.4 2.4 0 0 0-1.5-.6h-6.5a2.4 2.4 0 0 0-.6 0 3.3 3.3 0 0 0-2 1.7 4.5 4.5 0 0 0-.6 2.4v1.6h3.7v-2h4zm-29-.6v7a0 0 0 0 1-0 0h-10.5a0 0 0 0 1-0-0v-7a0 0 0 0 0-0-0h-6a0 0 0 0 0-0 0v18a0 0 0 0 0 0 0h6a0 0 0 0 0 0-0v-7a0 0 0 0 1 0-0h10.5a0 0 0 0 1 0 0v7a0 0 0 0 0 0 0h6a0 0 0 0 0 0-0v-18a0 0 0 0 0-0-0h-6a0 0 0 0 0-0 0zM74 117v-4.4a0 0 0 0 0-0-0H58.5a0 0 0 0 0-0 0l-2.7 5.3v12.6a0 0 0 0 0 0 0h18a0 0 0 0 0 0-0v-4.4a0 0 0 0 0-0-0H62a0 0 0 0 1-0-0v-2a0 0 0 0 1 0-0h10a0 0 0 0 0 0-0v-3.6a0 0 0 0 0-0-0H62a0 0 0 0 1-0-0v-2a0 0 0 0 1 0-0h12a0 0 0 0 0 0-0zm70-4.6h-7a0 0 0 0 0-0 0l-9 18a0 0 0 0 0 .2.3h6.5a0 0 0 0 0 0-0l5.6-11a0 0 0 0 1 .3 0l5.6 11a0 0 0 0 0 0 0h6.5a0 0 0 0 0 0-.3l-9-18a0 0 0 0 0-0 0zm-16.7.1-4 8a0 0 0 0 1-.3 0l-4-8a0 0 0 0 0-0 0h-4.4a0 0 0 0 0-0 0l-4 8a0 0 0 0 1-.3 0l-4-8a0 0 0 0 0-0 0h-6.6a0 0 0 0 0-0 0l9 18a0 0 0 0 0 0 0h3.5a0 0 0 0 0 0 0l4.4-8.7a0 0 0 0 1 .3 0l4.5 8.7a0 0 0 0 0 0 0h3.5a0 0 0 0 0 0 0l9-18a0 0 0 0 0 0-.3h-6.6a0 0 0 0 0-0 0zm62-0h-13.6a6 6 0 0 0-1.7.3 0 0 0 0 0-0 0l-3 6v8.3c0 2 2 4 5 4h13.6c2.6 0 5-1.7 5-4v-3a0 0 0 0 0-0-0h-6a0 0 0 0 0-0 0v1.3a1 1 0 0 1-1 1h-9a1 1 0 0 1-1-1v-7a1 1 0 0 1 1-1h9a1 1 0 0 1 1 1v1.4a0 0 0 0 0 0 0h6a0 0 0 0 0 0-0v-3c0-2-2-4-5-4zm-18.4 0h-23.5a0 0 0 0 0-.2.3l2.3 4.4a0 0 0 0 0 0 0h6.3a0 0 0 0 1 0 0v13a0 0 0 0 0 0 0h6a0 0 0 0 0 0-0v-13a0 0 0 0 1 0-0h6.3a0 0 0 0 0 0-0l2.3-4.4a0 0 0 0 0-0-.3zM46.3 130.7l9-18a0 0 0 0 0-0-0h-6.6a0 0 0 0 0-0 0l-5.6 11a0 0 0 0 1-.3 0L37 113a0 0 0 0 0-0 0h-6.5a0 0 0 0 0-0 0l9 18a0 0 0 0 0 0 0h6.7a0 0 0 0 0 0 0zm-19-18a0 0 0 0 0 0-0 6 6 0 0 0-1.6-0H12c-2.6 0-5 1.7-5 4V127a3 3 0 0 0 .5 1.6 0 0 0 0 0 0 0l5.4-4a0 0 0 0 0 0-0v-6a1 1 0 0 1 1-1h9a1 1 0 0 1 1 1v7a1 1 0 0 1-1 1h-8a0 0 0 0 0-0 0l-5.3 4a0 0 0 0 0 0 .3 6 6 0 0 0 2 .3h13.5c2.6 0 5-1.7 5-4v-8a0 0 0 0 0 0-0zm64 7h-6a0 0 0 0 0-0 0v3.6a0 0 0 0 0 0 0l7.7 7h8a0 0 0 0 0 0-0l-7.4-7h0c2.7 0 5-1.6 5-3.7v-3.5c0-2-2-4-5-4h-17a0 0 0 0 0-0 0v18a0 0 0 0 0 0 0h6a0 0 0 0 0 0-0v-13a0 0 0 0 1 0-0h8.5a1 1 0 0 1 1 1v.7a1 1 0 0 1-1 1z"/>
</svg>