<svg xmlns="http://www.w3.org/2000/svg" viewBox="0 0 256 144"><path fill="#eb0029" d="M0 0h256v144H0Z"/><path fill="#fff" d="M47 38 6 57l10 39 7.7-1-2-24.3 2.5-1 4.4 25 13-1.7-2.4-27 2.6-1 5 27.4 13.4-1.6L57.6 61l2.6-1 5.3 30L79 88V46zM48 97l.6 4 30.4 5V93Zm60-8v5.3h6.4c0 1-.3 2-1 3a7 7 0 0 1-6 3 7.4 7.4 0 0 1-7-4.6 15.7 15.7 0 0 1 0-10.6 7.5 7.5 0 0 1 7-4.5c3 0 5 1.7 6 4.4h7c-0-1.5-.7-3-1.4-4.3a14.7 14.7 0 0 0-12-6.3c-4 0-8 1.5-10.6 4-3 3.4-4.3 7.7-4 12 0 6 2.4 11 7 14a16.5 16.5 0 0 0 15 .3c4.6-2.4 6.6-7 6.6-11.6v-4zm89 17V74.5h21.4v6H204v7h11.6V93H204v7h14.4v5.7zM239 83.7c0-1-.6-2-1.4-3-2-1-4-1-6-.6-1.4.6-2 1.6-2 3 .3 2.5 2.7 3 4.7 3.6 2.3.5 5 1 6.7 2 2 1 4 2.5 5 4.5 1 3 .7 6-1 8.5-2.7 3.3-7 4.4-11 4.3-4.4 0-9-1-11-4.6-1-1.6-1.6-3.5-1.6-6h7c0 2 1 3.5 3 4 2 .7 4 .7 6 0 1.5-.5 2-1.6 2.4-3 0-1.5-1-2-2.3-3-2-1-4-1-6-1.6-2.7-.6-5-1.6-6.3-3a8.5 8.5 0 0 1-1-10.6c2.7-3 6.7-4.6 10.5-4.5 4 0 8 1.4 10.3 4.5a9 9 0 0 1 1.5 5zm-47 22h-7V82h-.7l-7 23.7h-7L163.4 82h-1v23.7h-7V74.6h12l6 21h.7l6-21H192Zm-47.5 0h7.6l-10.5-31H132l-10.5 31h7.6l2-7h11.3zm-12-12.3 3.4-11.4h1.3l3.4 11.4zm-9.5-55h7v31h-7zm38.6 24.3c-1 2.3-3 4-5 5.4a16 16 0 0 1-15 0c-2.3-1-4-3-5.4-5.4a20.4 20.4 0 0 1 0-17.4c1-2.3 3-4 5.3-5.5a16 16 0 0 1 15 0c2.3 1.3 4 3 5.3 5.5a20.3 20.3 0 0 1 0 17.4zm-5-8.7c0-2-.3-3.7-1-5.4a7 7 0 0 0-2.5-3.3 7.7 7.7 0 0 0-8 0c-1 .8-2 2-2.6 3.3a16 16 0 0 0 0 11 7 7 0 0 0 2.6 3.3 7.7 7.7 0 0 0 8 0c1-1 2-2 2.7-3.3.6-1.7 1-3.6.9-5.4m-48 4.7 3.6 11h8l-4-12h-5.6l-.3-1c1 0 3-.5 4.4-1.6 2.3-1.6 3.6-4 3.7-7a10 10 0 0 0-1.4-5.3 9 9 0 0 0-4-3.6c-2-1-4-1.3-6-1H94v31h7V58.7zm0-6.4a8 8 0 0 1-3 .4h-4V44h4c2 0 3.6.6 5 2 1 1.7.6 3 0 4.7-.5.7-1 1-2 1.5m56.3-14v6h12l.4 1c-1 0-2.7.5-4.3 1.5v23h7V44h8v-6z"/><circle cx="248" cy="76.1" r="1.4" fill="none" stroke="#fff" stroke-width=".5"/><text x="247.3" y="76.8" fill="#fff" font-family="sans-serif" font-size="2" font-weight="700">R</text></svg>