<svg viewBox="0 0 256 144" class="svgthemed"><path d="M151 70h-15.5V23.6H151v15.5l9.5-15.5h17.3L162.3 47l15.5 23.4h-17.3L151 55zm88.9-34.5h8.7V23.6h-32.9v12.1h8.7v34.5h15.5zM212.3 58h-17.4v-5.2h13.7V41H195v-5.3h17.4v-12h-32.9v46.5h32.9zm-172 50.3H23V73.6H7.3V120h32.9Zm36.3 0H59.2V103H73V91H59.2v-5.3h17.4V73.6H43.7V120h32.9zm172 0h-17.4V103h13.7V91h-13.7v-5.3h17.4V73.6h-32.9V120h32.9zM97.4 47a24.1 24.1 0 0 1-24.2 24.2A24.1 24.1 0 0 1 49 47a24.1 24.1 0 0 1 24.2-24.2A24.1 24.1 0 0 1 97.4 47zm-15.6 0a8.8 8.8 0 0 0-8.6-8.7 8.8 8.8 0 0 0-8.7 8.7 8.8 8.8 0 0 0 8.7 8.7 8.8 8.8 0 0 0 8.7-8.7zm115 53.4c0 2.9-2.4 5.3-5.3 5.3a5.3 5.3 0 0 1-5.3-5.3V73.6h-15.5v26.8a20.8 20.8 0 0 0 41.6 0V73.6h-15.5ZM132 52c-1.6 2.1-5.8 3.4-8.7 3.4a8.8 8.8 0 0 1-8.7-8.6 8.8 8.8 0 0 1 8.7-8.7c2.9 0 7.1 1.3 8.7 3.4V23.6a46 46 0 0 0-8.7-1 24.1 24.1 0 0 0-24.2 24.2A24.1 24.1 0 0 0 123.4 71c2.4 0 6.3-.3 8.7-1.1zM47 38.3c0 6.6-3.4 12.4-9.2 13.5l11.9 18.4H32.4L23 54.7v15.5H7.4V23.6h24.2c8.7 0 15.5 6 15.5 14.7zM31.6 41c0-3-2.3-5.3-5.2-5.3H23V46h3.4c2.9 0 5.2-2.1 5.2-5zm76 72.3h-12L94 120H78.4L94 73.6h15.5L125 120h-15.5zm-2.9-12.1L101.6 88l-3.2 13.2zm63.1-8.4h-22.3V104h7.1c-.8 1.6-2.4 4.2-7.1 4.2-5.3 0-9.5-4.5-9.5-10.3a10 10 0 0 1 9.5-10.2c5.3-.3 7.4 1.8 9 3.4l10.7-10.3a26 26 0 0 0-19.7-7.9 24.1 24.1 0 0 0-24.2 24.2 24.1 24.1 0 0 0 24.2 24.2c14 0 22.4-10 22.4-22.3z"/></svg>