<svg viewBox="0 0 256 144" fill="#365dbf"><defs><symbol id="a1"><path d="M212.3 58h-17.4v-5h13.7V41H195v-5.3h17.4v-12h-33v46.5h33z"/></symbol></defs><path d="M94 73.6 78.4 120H94l1.6-6.7h12l1.9 6.7H125l-15.5-46.4H94zm7.6 14.4 3 13.2h-6.3l3-13zM73 23A24 24 0 0 0 49 47a24 24 0 0 0 24 24A24 24 0 0 0 97.4 47a24 24 0 0 0-24-24zm0 15.5a9 9 0 0 1 8.6 8.7h0a9 9 0 0 1-8.7 8.7 9 9 0 0 1-8.7-8.7 9 9 0 0 1 8.7-8.7zM7.4 23.6v46.6H23V54.7l9.4 15.5h17.3L38 52c6-1 9-7 9-13.5h0c0-8.7-7-14.7-15.5-14.7H7.4zM23 35.7h3.4c3 0 5 2.3 5 5.3 0 3-2.3 5-5 5H23V35.7zm145 57h-22.3V104h7c-1 1.6-2.4 4-7 4-5.3 0-9.5-4.5-9.5-10.3a10 10 0 0 1 9.5-10c5.3-.3 7.4 2 9 3.4l10.7-10.3a26 26 0 0 0-19.7-8 24.1 24 0 0 0-24 24 24 24 0 0 0 24 24c14 0 22.4-10 22.4-22.3zM132 52c-1.6 2-6 3.4-8.7 3.4a9 9 0 0 1-8.7-8.6 9 9 0 0 1 8.7-8.7c3 0 7 1.3 8.7 3.4V23.6a46 46 0 0 0-8.7-1 24 24 0 0 0-24 24A24 24 0 0 0 123.4 71c2.4 0 6.3-.3 8.7-1zm65 48.4c0 3-2.4 5.3-5.3 5.3a5.3 5.3 0 0 1-5.3-5.3V73.6h-15.5v27a21 21 0 0 0 41.6 0V73.6h-15.5zm-156.5 8H23V73.6H7.3V120h33zm199.6-73h8.7V23.6h-33v12h8.7v34.5h15.5zM151 70h-15.5V23.6H151v15.5l9.5-15.5h17.3L162.3 47l15.5 23.4h-17.3L151 55Z"/><use xlink:href="#a1"/><use xlink:href="#a1" transform="translate(-136 50)"/><use xlink:href="#a1" transform="translate(36 50)"/></svg>