<svg viewBox="0 0 256 144" fill="#81f3a1" style="background:#000"><path d="M73.3 69.7c0 2 1 4.4 2 1 1.5-1 .4 7.7 3 4 2 0 1-3.7.6-4.7 1.7-1 3-.4 3.7-1.4 2-1.4 4-3 5.4-5 .7-2.7 5-5 4.4-7.6-.7-2-6-2-2-3.6 4-1 8.3 1 12 .4.5-1.6-5-2-7-1.6-3 .6 1-4-.4-5.5-2-5 4.6-1 7-1 2.3 1 4 1 4-2 .6-2 1-4 0-.7-2.3 3-6 1-8-1.4 2-.4 4.7-1.4 6.7-2.6 1-0 2.6-2 4-2.7 2.3-.4-1 4-.3 5.6-.5 2.6-3 7 1 7 1 .4 1.4-3 3.4-3.3 1.5-.7 1.5-2 2.7-3 2.4-1 1.3-3.6 3-5.3 2.4-1.5 7-3 4.6-6.6-0-1.7 3 0 4-2 3 3 4-2.3 5.7-3.7 4.4-1 3-7.4 7.6-7.6 2 0 5-1.7 6 1 .7-5 5.5-1.5 8.6-2 1.5.3 7 1 3-.5-4-2-8-5-12.7-5-4.4-1.3-9-1.4-13.5-2.3a11 11 0 0 0-7-.6c-4 .6-8 1.7-12 3-2.7 1.3-7.6 1-8 5-3 3-7 1-10 4-3.6 2.6-7.3 5-10.6 8-1.6 3.3-3.4 6.6-5.4 10-2.4 1.6 1 3.7 1.3.7 3.7 1 4-3.6 6.3-5 2-4 7.4.5 10.3-2 2-2 4.5-2.6 6.3-4.4 3.3.5 6.3-2 9.7-2.4 3-0-4 2-5 3-3.7 1-6 4.6-10 5-3 .3-5.6 2.5-8.5 4-2.7 3-7 4.4-9.7 8-2 2-4.5 2.6-6 5.4-.6 3.5-3.7 7-1.3 10.6 1 3.6 3.4 6.3 1.3 9.5zm.6-.7Zm77.3-45.3a37 37 0 0 0-14 7.5c-5 2-8.6 5-13 7.6-4.6 3-9.6 8.3-13.6 10.6-1.7-.4 5 10-1 7 1.4 3 7.7.4 8.5 5.3-0 3.7.4 7.5-.4 11-1.4 1-5 2-3.7 3 1-1.6 3-1.7 4.7-3.4 1.3-1 .3-3 4-2.4 2-1.4 6.6-7.3 7.6-5a85 85 0 0 0-7.6 10c-1.3 2.4-4 8-3 8.7 2-1.5 8 .4 2.7 1-2.6-.4-8.5 3.5-2.7 1.7.7 2-9.5 3.7-6 3.7 3.7 1.6-6 2-6 .7-4.4 0-4 1-.5.7-2.3 3-9.4 1.3-13.5 2.6-4.6 1.7-6-1.7-11-.3-3-1 5.7-2 7-2.5 5-1.4-8 1.6-6.7-.5-3 1.4-6.4-1-1.5-1.5 4.7-.3-.5-2.3-1.4-4-2-5.4-2 4.7-6 4-2 4.7 2.3 8 6.3 9 3.7 3.3 7 12.7 13.3 9 4.7-4.3 9 3.4 13.6 4 0 3.6-2 7.5 1 8.4 2 3 1.3 7.3 1.7 11 2.6 3.4 8.5 5 6-1-1.3-2.6 1.3-4 2.5-6-1 .6-8.6 6-6 1.3 4-4.3.4-10 5-13.5 3 .5 3.7 5 1 4 .7 6.7 5-6 8 1 1 2 6 6 1.7 7.6 3 2.6 1 11 4.4 12.3 3-2 8 .5 6.4-5 0-3-2-6.5.4-9 3-4.4-4.4.2-1.6-4a7 7 0 0 1 8-6.7c3-.6-1.3 1.6.6 2-5 .7 6 5.6 0 5-5-.5 2.4 1.7.7 3.3 2 3.3 5 6 8.3 8.6 4-4 2.5-10.5 5-15.6.4-3-2.5-4.3-3-1-3.7-1-5.3-3-4.9-6-2-3-6.7-10.7-3-12 3 3.6 3 13.5 7.7 13 4-2 3-9 5-12-1-2-.7-5-3-6 2-3 9.5-2.3 7.6 3 0 3 2.5 5.6 6.3 6.5 3 4 5-1 4-4 1-2.4.7-5.6 2-8 2.4-3.3 10.3-10 3.3-11.7-4-4-6-9.7-2.6-14.3 1-5 0-10.3.1-15.5-.3-5.5-7.7-8-8.3-14-1-2.6-11-2.5-3.3-3.7-3.4-3-3.7-11-9.4-9.6-3 .3-5 2-7.4 4.4zm3 106c.3 0 0 .3 0 0zM141.5 39c2.5 0 6-4.4 8-1-3 1-6.4 4.5-9.3 4.3 0-1 .7-2.3 1.3-3.3zm-9 15.5c1-2 1.7-5.3 4.6-4.6 1-3 6.5-3.4 7.3-.7-4-1-4.6 5-9 3.6-1.3 1-5 6-3 1.7zM114 99c-3 .6-4.5.3-1-1 2.5-2 10 0 3 0l-1 .3zm3 8c-4.6-1 9.3-3.3 3.7-.7l-3.7.7zm27-8c-4 2.3-7-1-9.4-3-4-0 2.4-2.4-.6-5-1.6-2-5.4 5.5-5 8.5.9 4 8.7.3 12.5 1 6-.6-1 1.4-3.4 1-5.6 2-11 .7-17 1.6-5.3.4.6-1.4 3-2 .7-2.6-11.3.6-4.3-2 3-.7 3.5-1.7-.3-1.6.6-4 3.3-7 5-10.4 1-2 .6-6 4-4 1-5.6 7.7-.4 8.5 2.7 2 4.6 8 9 3 13.3.7-.3 6 1 4 .4zm14.7-51.6c1.4-1.7 6-8 4.7-2 1.6 4.5 1.4 10 4 14.4-0 5 1.7 9.6 7 9-4 3-8.3 3-13.6 4.4 1.6 1 8-1 10.7-.4 3 2-13 2.3-5.3 2.5 2.5-.3 5-1 7.6-1-3 2-6 2-10 3-4-0-7.7-1.4-12 0-3 0-10 1.5-4 1 2.4-0 4.7-1 7-.7-1 2.7 8-1.7 9 1 2.5-.4 5.3 0 1 1.6-5-0-10 1.5-15 1-4.6 1.4-3.3-2.4-8-.5-4.3.5 1-3-2.7-2-4-2 6.4-2 8.4-2.5 2.3-.3 8.5-1 3-1-2-1-10 1.6-7.6-1 2-1-9 2.3-4.3-2.7 2.6-2.6 5-5 8-7.6-1-4 4.3-4 3.5-8 4.7-2.3 5.4-5.6 8.6-9zm-4 15c0 1.4-.3 2.7-.3 4-.7 0-1 1-1.5 1h-4l-4 4 2.5-1c2-.5 4.6-1 7-.7.4.1 1 .6 1.4 0 .5-.4.2-1 .4-2 0-1.6.7-3.3.9-5 1-.5 1.7-1.4 2.4-2.3.7-.6 1.3-1 2-1.6.7-.6-.4-1-1-.4-2 1-4 2-5.7 3 0 .4-.3.7-.3 1zm-56 29c-1.5 0-3 .3-4.6.3l-.3.3c.1.4.5.5.9.5.2 0 .6.2.2.3-1 .6-2.5.5-4 1-.5 0-1 0-1.4.3-.5.3 0 .6.4.4l1.4-0 6-1 1-0c.3-.3-.4-.3-.7-.3-.7.1-1.4.3-2 0 0-.4.3-.6.6-.7.6-0 1 0 2-.4l0-.5zm-3.3-28.6-2 2c-.4 0-1 0-1.4.5-.3.3 0 1-.3 1L89 69c-.6.1-1-0-2-.3-.3 0-1-.3-1 0 1.4.6 3 1.3 4 2.3.2.7-0 1.4-.7 2l-1 2.5c0-0 1.5-.6 2.3-.7.7-.7 1.5-1.4 2-2.3 0-.4-0-0 0-1 0-.7.4-1.4.8-2l1-2c0-.7-0-1.4.3-2 0-.6-.4-1.4 0-2 .3-.3.9-.3.5-.7l-0-0z"/></svg>