<svg viewBox="0 0 256 144" style="background:#000;"><path fill="#FFF" d="M118.6 6 93 61.4l25.3 55v-21c-2-.4-5-2.6-7-7 .7-4 1.4-8 1-12.6 5.3 2 6 5 6.6 8 .7-1.7.7-4 .4-6.6 5 2 7 6 7 7 .3 1 2 7.3 2 9.4 0 2-1 3.7-1 3.7a60 60 0 0 0-5 9.7c0 2 2.5 6 2.5 7 0 1.3-4.4 6.4-4.4 8 0 1.5 4.6 11 7 16.3l6.4-14c-4 3.7-8 4-10.3.6-.5-1-1-2-1-2.4 0-1.7 5-6.3 4.7-8 0-1.5-1.5-5.3-1.6-7 0-1 3.6-6.4 6-10 1.3-2.3 1-3 1-5l-.5-6.6c-.3-4 1-6.5 4-8.5-.3 2.6-.3 5 .4 6.6.7-3 1-6.3 6.5-8a52 52 0 0 0 1 12.6c-2 4-5 6.4-7 6.7v21l25.4-55-25.6-55.5-.6.5c0 8-1.6 5-2.3 9.5 1-.4 1-2 3-2 .5.7 6.7 24.6 7 27 .6 3.6-4 4-4 8 1.6-2 4-4 6.4-2.4 1 4.3 1.6 8.5 2 12.6 0 2.3-1 3.7-4.4 3.7-2 0-4-.3-4-2 0-1 1.3-2.6 3-4-4.3-.3-7 4-8 7 0-1.3 0-3 1.3-5.6a8 8 0 0 0-4.6 5.7c-.6-3.6-2.4-6-6-11-.5-.6-1.6-3.6 1-5 5-3 9.3-4 9.6-9.7 0-1.6-.5-5.5-7-7.3-.4 0-.6-.6-.3-1 1-1.4 5-2.6 5-5-1 1.6-3 2-5.7 2h-2a1 1 0 0 1-1-1 14 14 0 0 1-1.6-4 9 9 0 0 1 .3-3.7c-1.4 1.6-1.6 2.3-2 3-.3 2 .3 3.5 0 5.7l-2 4c.5 2.3 0 3.4-1 4.3 0 3 1 3.7 1.6 4 0-3.7 4-6.4 7-6.4 2.5 0 6.7 1.7 6.7 5 0 3-2.4 4.3-5.3 5.4-3 1-6 2-7.5 4.7-3 5 .6 9.3 1.4 13.7a9 9 0 0 0-4-3.6c1.4 3 1.5 4.6 1.3 5.7-1-3.3-4-7.5-8-7 2 1 3 2.6 3 4 0 2-2 2-4 2-3.3 0-4.6-1.3-4.4-3.6a155 155 0 0 1 2.3-12.6c2.6-1.7 4.7.6 6.3 2.4 0-4.3-5-4.6-4-8 .3-2.6 5.6-26.5 7-27 2 0 2 1.6 3 2-1-4.5-2.4-1.4-2.4-9.5l-.6-.5z"/></svg>