<svg viewBox="0 0 256 144" class="svgthemed"><path d="M126 6.3h-3A65.5 65.5 0 0 0 60 62.7h3a62.3 62.3 0 0 1 124 9c0 3.7-.3 6.4-1 10h13v-2.6h-9.6a65.5 65.5 0 0 0-63.6-73ZM54.6 64v2.5h5a70 70 0 0 0 0 14 65.5 65.5 0 0 0 129.4 3H186a62 62 0 0 1-63 51A62.3 62.3 0 0 1 63 80a63.7 63.7 0 0 1-0-13.4h5V64zm58.6 5.3c0-1.3-.3-4-3.3-5-1-.4-3.5-.3-4.7-.3H100V82h2.6v-7.5h3l5 7.4h3.3l-5.5-7.5a5.5 5.5 0 0 0 3-1.3 5 5 0 0 0 1.4-3.6zm-4.6 2.4a14 14 0 0 1-2.7 0h-3.4v-5.5h3.5a16.5 16.5 0 0 1 2.6 0c1.7.4 2 2 2 2.7 0 1-.3 2-2 2.5zM39.5 66a4 4 0 0 1 3 1.5 3.4 3.4 0 0 1 .4 1l0 .3H46l-0-.6c-.6-2-2.6-4.5-6.5-4.5-3 0-6 1.4-6 5s3.4 4.5 5.4 5h0c2 .6 3 1 3.5 1.4a2 2 0 0 1 1 2c0 1.3-1 3-4 3-1 0-3-0-4-2a3.4 3.4 0 0 1-.3-1v-.5h-3l0 .6a6.4 6.4 0 0 0 2.6 4.3 8 8 0 0 0 4 1c4.5 0 7-2.7 7-5.5 0-1.6-1-4-4-5-.3-0-1-.4-2.4-.7l-1-.3c-1.3-.4-2.4-1-2.4-2.4 0-2.4 3-2.5 3.4-2.5zM219 64.6c-1.3-.4-3-.4-4.5-.5h-5v18h5c3 0 4.5 0 6-1.4 2-1.6 3-4.3 3-7.6 0-4-2-7-4.5-8.3zM218 79c-1 .4-2.7.4-3.7.4H212V66.6h2.4c2 0 3 0 3.7.4 1.7.7 3 3 3 6 0 3-1.4 5.3-2.7 6zm-43-12.3v-2.5h-12v17.7h12.6v-2.5h-10V74h8.5v-2.5H166v-5zM148 64h2.6v17.7H148zm-11 2.4v-2.4h-12v17.7h2.6v-8.3h8.4v-2.4h-8.4v-4.6zm-58 8.7 3-7 2.7 7 .5 1.3 2 5.3H90l-7-17.7h-2l-7.3 17.7h3l2-5.3z"/></svg>