<svg xmlns="http://www.w3.org/2000/svg" viewBox="0 0 256 144"><path fill="#223" d="M0 0h256v144H0z"/><path fill="#fff" d="M102.8 57.5l-12 17 11.8 12.7 16.7-12.4z"/><circle cx="119.2" cy="58.2" r="17.1" fill="#fff"/><circle cx="24.2" cy="58.6" r="12.7" fill="#fff"/><circle cx="24.2" cy="58.6" r="9.3" fill="#223"/><circle cx="90.2" cy="85.7" r="12.7" fill="#fff"/><circle cx="90.2" cy="85.7" r="9.3" fill="#223"/><circle cx="119.2" cy="58.2" r="11.4" fill="#223"/><circle cx="119.2" cy="58.2" r="8.6" fill="#fff"/><path fill="#fff" d="M204.1 48.5l-6.6 18.4h4l1-3.2h6.2l1 3.3h4l-6.6-18.5zm-24.2.1v18.3H192V64h-8.4v-4.7h7.3V56h-7.3v-4.4h8.3v-3zm38.7 0V67h3.7V56l3.7 7h2l4-7v11h3.4V48.6H232l-5 10-4.4-10zm19.4 0v.8h1.4v4h1v-4h1.2v-.8zm-87.9.1c-1.6 0-3.4.4-4.4 1.4a5.4 5.4 0 0 0-1.6 4c0 3 1.6 4.7 4.9 5.2 3.3.5 4.3 1.1 4.3 2.5 0 1.5-1.1 2.2-3.3 2.2-2.2 0-3.4-.6-4.4-1.6l-2.2 2.2c1.1 1.7 3.3 2.4 6.6 2.4s6.6-1.8 6.6-5.5c0-3-2.3-4.6-5.3-5.2-3-.5-4.1-1-4.1-2.3 0-1.6 1.1-2.3 2.8-2.3 1.7 0 2.8.3 4 1.3l2.3-2.3a9.4 9.4 0 0 0-6.2-2zm91.9 0v4.7h1v-2.8l1 1.8h.6l1-1.8v2.8h1l-.2-4.7h-1l-1 2.6-1.2-2.6zm-81 .1V52h5v14.7h4V52h4.6v-3.2zM25.7 51.9c-3.1 0-6.1 1.7-7.2 4.7-1.5 3.7.2 8 3.8 9.5 23 9.2 44 17.5 64.3 26.1 4 1.7 7.8-.6 9.5-4 1.2-3.5 0-8.2-3.8-9.7L27.8 52.3l-2.1-.4zM205.6 54l2.2 6.7h-4.4z"/></svg>