<svg viewBox="0 0 256 144" style="background:#101823"><path fill="#ff4655" d="M78.3 9.5c.6-.3 1 .4 1.3.7L140 85.8c.4.3.1 1-.5 1h-29c-1 0-1.5-.4-2-1l-30-37.4c-.4-.6-.6-1-.6-2V10.3c0-.3 0-.6.3-1zm93 0c.4-.2.9.2.8.6v36.2c0 .7 0 1.4-.5 2l-9 11.4c-.5.6-1.3 1-2 1h-28.7c-.6 0-1-.7-.5-1l40-50 .4-.2zm-66 98a13.6 13.6 0 0 1 15.3 16.7 13.6 13.6 0 1 1-15.3-16.7m1 4.6c-3 .4-5.5 2.5-6.7 5a9 9 0 0 0 .7 8.4 8.5 8.5 0 0 0 13 2 9 9 0 0 0-.5-14 8.5 8.5 0 0 0-6.5-1.6zm-72.6-4c1-.3 2.3 0 3.5-.1.4 0 1-0 1.3.3v18l14-17.5c0-.3.6-.6 1-.6h4c.5 0 1-0 1.5.2l-5 6-14.4 18-1 1.4c-.4.3-1 0-1.5.2h-3.5zm32.4.9c.5-.6 1.3-1 2-1h3c.4 0 .6.3.5.6v24.6c0 .3-.1.7-.5.6h-4c-.4 0-1-.3-1-.6l-6.7-8.4-7 8.5c-.2.3-.6.5-1 .5h-4.4c-.3 0-.8.1-1-.2L66 109m-3.6 12 4.5 5.7v-11.4l-4.5 5.7zm15-12.3c0-.3.1-.6.5-.6h4c.4 0 .7.3.6.6v20.6H93c.4 0 .5.3.3.5l-3 3.6c-.3.4-.8.6-1.3.5H78c-.4 0-.5-.3-.5-.6v-24.6zm48 0c0-.3.2-.7.6-.6h19.6c.3 0 .7.1.6.5v5.3c0 .4-.1.8-.4 1L140 122c-.1.2-.4.4-.2.6l8.6 10.7c.2.2.2.6-.1.6h-5.1c-.7 0-1-.6-1.4-1l-8-10c-0-0-.4-.6-0-1l7.5-9.4H130v20.7c0 .4-.3.6-.6.5h-4c-.3 0-.4-.4-.4-.6v-24.6zm27.3 0c0-.3.2-.7.6-.6h3.6c.5 0 1 0 1.2.5l18.3 23c.5.6 1 1.3 1.6 2l-.2.3h-4.4c-.6 0-1.3 0-1.7-.4l-7-8.6-7 8.5c-.2.3-.6.5-1 .5h-4c-.4 0-.6-.3-.6-.6v-24.6m5 6.6v11.4l4.5-5.7-4.6-5.7zm16.5-6.5c0-.3.1-.7.5-.7h3.6c.5 0 1 0 1.3.5l14 17.6v-17.5c0-.3.2-.7.6-.6h4c.3 0 .4.4.4.7v24.5c0 0 0 .6-.4.6H194c-.4 0-1-0-1-.5l-14-17.6v10.3c0 .3-.4.6-.6.3l-4-5c-.3-.3-.4-.7-.4-1v-11.5zm27.7-0c0-.4.3-.6.6-.5h16c.6 0 1 0 1.3.5l3 3.6c.2.2 0 .6-.3.5h-8.4v20.6c0 .3-.2.7-.5.6h-4a.5.5 0 0 1-.4-.5v-20.7h-6.7c-.3 0-.7-.2-.6-.5v-3.6z"/></svg>