<svg viewBox="0 0 256 144">
  <path fill="#060" d="M0 0h256v144H0V0z"></path>
  <g fill="#FFF">
    <path
      d="M237.2 93.4l-13.3-18-13.5 18H205l16-22-14.6-19.8h5.5l11.8 16.2 12-16.2h5.4l-14.6 20 16 21.8h-5.3zm-104 0l-16.2-22 14.7-19.8h-5.5l-12 16.3-12-16.4h-5.5l14.7 20-16 21.8h5.4l13.4-18 13.3 18 5.7.1z"
    ></path>
    <path
      d="M161 71.4c4.5-2.6 6-8.2 4.2-13-2-5.2-7.5-7-12.8-7h-17v18h-5.7l-3 4.2h8.7v19.7h17c5.6 0 11.7-2 14-7.5 2.3-5.3.1-12.3-5.5-14.6zM140 56h12.4c11.2 0 11.5 13.6 0 13.6H140V56zm12.4 33H140V74h12.4c13 0 12.6 15 0 15m37-38.3c-26.4 0-26.3 43.8 0 43.8s26.4-43.8 0-43.8m0 39.3c-20.2 0-20-35 0-35s20.2 35 0 35M23.7 47.2a34.4 34.4 0 0 0-3 46c-3-7.3 18-37 18-37-9.3-10.3-15-9.2-15-9M83 71.8a33 33 0 0 1-7 21c.4-4.7 0-13-18.4-36.7.7-1 11-11 15-9A35 35 0 0 1 83 71.7v0zM48.2 37c10.6.3 14 3 18.3 5.2-6-1-12.7 1.9-18.3 5-10.4-5.6-14.5-5.4-18.3-5A36.6 36.6 0 0 1 48.2 37m0 28c10.6 8 28.4 27.5 23 33a34.8 34.8 0 0 1-46 0c-5.4-5.6 12.5-25 23-33"
    ></path>
  </g>
</svg>
