<svg xmlns="http://www.w3.org/2000/svg" width="1024" height="1024"><defs><mask id="c" maskUnits="userSpaceOnUse"><path fill="#0c8b00" d="M109.6 162l.4.4s44.6-14 45-3.6c.4 10.3 9 47.8 9.6 52 4.2 35.7 11 61.3-1.4 100.7 1.8 6-77 23-77 23l-6.6 2c-8.3 3-10.4 3.2-12.5 4.4a57.4 57.4 0 0 1-14 3.4c-1.4 0-5.8-13-7.6-22.5-1-5-3.2-13-5-17.6a361 361 0 0 1-7.8-26.6 92.5 92.5 0 0 1-3.6-42.3 89 89 0 0 0 1.4-13c.8-14.3 2.2-19.8 6.5-25l5.4-7c2.5-3.8 15-11.4 25.3-15.4a416 416 0 0 1 40-12.3l2-.6z"/></mask><mask id="d" maskUnits="userSpaceOnUse"><path fill="#03ff45" fill-rule="evenodd" d="M475.8 332l-35.7 7.6-42.3 14.3-85.7 13.3-12 12.8s14.6 0 23.3-.6c19.8-1.3 38.7-2.5 60.4-8a632 632 0 0 0 62-19 93 93 0 0 1 29.2-8c7.5-.3 9.6-.6 12 1s2.4 3.7 2.4 3.7 3.2-3 2.8-5.7a8 8 0 0 0-.2-1l-2.4-2z"/></mask><mask id="a" maskUnits="userSpaceOnUse"><path fill="#fff" fill-rule="evenodd" d="M222.2 25.3A61.8 61.8 0 0 0 168 57.8c-13.8 26.7-5 59.4 19.2 78.7 3.7 4 5.2 8.7 3.5 12.7-1.7 4-6.3 6.2-12.2 5.8-5.8-.4-24.5-5.4-33.7-7-10-1.6-13.6-3.7-28.3-10.6-11.8-5.5-15-18.8-19.5-24-3.3-5-8.4-7.8-13.6-6.8-4 .7-6.7 2.2-8.6 5.6 0 0-11 21.3-12.8 25.3-1.8 4-10.7 20.2-12.6 36.2-13.2 115 147 127 227.6 110a67.3 67.3 0 0 0 54.6-65 66 66 0 0 0-33-57.2 55 55 0 0 1-21-27.6c4-4 7.4-8.7 10.2-14 15.8-30.7 2-69.4-31.2-86.5a71.3 71.3 0 0 0-34.2-8z" color="#000"/></mask><mask id="b" maskUnits="userSpaceOnUse"><path fill="#fff" fill-rule="evenodd" d="M222.2 25.3A61.8 61.8 0 0 0 168 57.8c-13.8 26.7-5 59.4 19.2 78.7 3.7 4 5.2 8.7 3.5 12.7-1.7 4-6.3 6.2-12.2 5.8-5.8-.4-24.5-5.4-33.7-7-10-1.6-13.6-3.7-28.3-10.6-11.8-5.5-15-18.8-19.5-24-3.3-5-8.4-7.8-13.6-6.8-4 .7-6.7 2.2-8.6 5.6 0 0-11 21.3-12.8 25.3-1.8 4-10.7 20.2-12.6 36.2-13.2 115 147 127 227.6 110a67.3 67.3 0 0 0 54.6-65 66 66 0 0 0-33-57.2 55 55 0 0 1-21-27.6c4-4 7.4-8.7 10.2-14 15.8-30.7 2-69.4-31.2-86.5a71.3 71.3 0 0 0-34.2-8z" color="#000"/></mask></defs><path fill="#281305" stroke="#000" d="M778 246s.5.6 4.5 1c11 1 26.3.4 32.8-4.2 3.2-2.3 4.7-8.4 4.3-11.2-13-10.5-18.6-8.7-18.6-8.7-14.2 12-23 23-23 23z"/><g fill-rule="evenodd"><path fill="#f2c002" d="M574.2 187c-65 4.3-124.3 40.7-152 100.7-36.2 78.3-7 171 65.2 223.6 11 10.8 16 24.3 11.7 35.8-4.4 11.7-17.3 18.6-34 18.3C448 565 393.6 553 367 550c-28.6-3.4-39.4-9-82.7-27-34.5-14.3-45.2-52-59-66.3-10-14-25-21.4-40-18-11.6 2.8-18.7 7.2-24 17.4 0 0-28.8 62.5-33.4 74.4-4.5 12-28 59.3-31.4 105.7-23.4 332 438.7 346.3 668 286.3 87.6-23 152.8-100.4 148.6-194a189.7 189.7 0 0 0-102-160 158.5 158.5 0 0 1-64.4-76.7c11-12.2 20.2-26 27.4-41.5 41.6-90-3.4-199.6-100.5-244.5a205 205 0 0 0-99.3-18.7z" color="#000"/><path fill="none" stroke="#f2c802" stroke-linecap="round" stroke-linejoin="round" stroke-width="43" d="M593.4 208c29.2-1.3 58.7-4.7 80-28"/><path fill="none" stroke="#fff" stroke-linecap="round" stroke-linejoin="round" stroke-width="14.4" d="M806 593.3s25.5 17 35.6 27c20.8 20.8 40.4 44 46.4 86.3 3.3 23.2 5 37-1.6 64.5-4.5 18.4-5.2 18.7-14 39.4m-11 17.3c-16.2 28.7-33.3 41.3-59 59.7" opacity=".5"/><path fill="#da9c16" d="M83.4 82.3S59 153 57.6 177.4a83 83 0 0 0 29 71c24.4 21.6 62.6 40 62.6 40l-90.5-22.7L44 182l13.4-73z" mask="url(#a)" opacity=".5" transform="rotate(-2.6 3169.4 1585.9) scale(2.87605)"/><path fill="#da9c16" d="M199.8 14s-28.3 39-29.4 68.7c-1 29.7 18.4 57 18.4 57l-48.4-27 3.8-76.3z" mask="url(#b)" opacity=".5" transform="rotate(-2.6 3169.4 1585.9) scale(2.87605)"/><g color="#000"><circle cx="671" cy="358" r="55" fill="#da9c16"/><circle cx="666" cy="351" r="47" fill="#393228"/><circle cx="661" cy="339" r="22.7" fill="#fff"/><path fill="none" stroke="#000" stroke-width="5" d="M574.2 187c-65 4.3-124.3 40.7-152 100.7-36.2 78.3-7 171 65.2 223.6 11 10.8 16 24.3 11.7 35.8-4.4 11.7-17.3 18.6-34 18.3C448 565 393.6 553 367 550c-28.6-3.4-39.4-9-82.7-27-34.5-14.3-45.2-52-59-66.3-10-14-25-21.4-40-18-11.6 2.8-18.7 7.2-24 17.4 0 0-28.8 62.5-33.4 74.4-4.5 12-28 59.3-31.4 105.7-23.4 332 438.7 346.3 668 286.3 87.6-23 152.8-100.4 148.6-194a189.7 189.7 0 0 0-102-160 158.5 158.5 0 0 1-64.4-76.7c11-12.2 20.2-26 27.4-41.5 41.6-90-3.4-199.6-100.5-244.5a205 205 0 0 0-99.3-18.7z"/><path fill="#b94519" d="M737.5 410.2c3-8.8 20.3-22 36-18.7 3.6.8 13-18.7 16.5-18.4 9.3.7 16.3 9.2 20.5 13 11.7 10.4 52.3 4 63 6 16 20.5-32.7 59.6-58.5 45.2-13.5-3.7-4.8 2.4-2 5.2 17.7 17.2 35.8 27.8 28.5 35.8-14.7 16-62.7 6.2-81.4-11-29.3-26.8-25.7-47.2-22.4-57.2z"/><path fill="none" stroke="#000" stroke-linecap="round" stroke-width="4" d="M789.4 373.4c9.3.7 16.8 9 21 12.7 11.7 10.4 52.3 4 63 6 16 20.5-32.7 59.6-58.5 45.2-13.5-3.7-4.8 2.4-2 5.2 17.7 17.2 35.8 27.8 28.5 35.8-14.7 16-59.3 7-78.2-8.2"/></g></g><g fill="#ff1515" stroke="#000"><path d="M597 73.3c6-1 17-.7 39 .6a83 83 0 0 1 38 10.6c8 5.4 16.8 20.2 29 49.3 2.2 5.4 7.4 17.3 11.5 26.4 4 9 8.4 19.8 9.4 23.7 2 6.8 3 10.2 4.6 12.2a49 49 0 0 0-14.4-.2c-9 1-24.2 4.6-37.2 9-13 4.5-18.3 6.5-37.4 12.2a3101 3101 0 0 1-70.4 20.2c-21.7 6-40 10.8-55.8 16a524.4 524.4 0 0 0-39.8 14c-10 4-28.7 10.4-36.7 15.3l-1 .5-2.7 1.5c-1.8 1.3-10 4.6-12.3 5-1.3 0-7-11-10-19.6-1.5-4.3-4.5-11.2-6.8-15.3-2.2-4-7-14.5-10.6-23.2a85 85 0 0 1-8.8-38c.2-1.8 0-7.2-.4-12-1-13-.6-18.2 2.7-23.6l4-7a67.6 67.6 0 0 1 21-17.2c8-4.5 25.5-12.8 34.6-16.4 3-1.2 9.6-4 15-6.6A342 342 0 0 1 522 89.5a735.7 735.7 0 0 1 48.6-10.7 676 676 0 0 0 26.6-5.4z"/><path d="M740.4 201c-5.5-2-6.7-1.8-12.3-4 0 0-3.5-1.6-9.2-1.5-5.6.2-15.5 1.6-24.2 4-8.8 2.4-19.2 6-34 10.7a915 915 0 0 1-35 10.6c-13 3.7-45.6 13.4-65 18.6-19.2 5.3-39.6 11.2-42.6 12-3.2 1-5.7 1.8-6 4-.4 1.8-.3 2.6 2 4.7 2.5 2.6 8.5 7.5 26.6 13.5 18 6 35.7 11 56.2 14.3 20.5 3.2 21.2 3.6 32.2 3.5 11 0 24.3-1.3 42.2-5 17.8-3.8 35-7.4 53.8-15 19-7.7 41.5-18.6 54-25.5 12.7-7 18.7-9.7 25.5-11 6.8-1.3 8.7-2 11.2-.8 2.4 1.2 2.6 3.2 2.6 3.2s2.5-3.2 1.8-5.6c-.7-2.4-2-3.2-4.4-4.4-2.5-1-14.3-4.5-25.6-8.5-11.4-4-25.2-9.4-34.5-12.7-9.2-3.3-10.5-3.6-15-5z"/></g><path fill="#8b0000" d="M109.6 162l.4.4s-7.5 15.3-7 25.7c.3 10.3 4.2 15.3 5 19.6.7 4.3-10.8 15.7-17.5 22.2-6.8 6.4-9 10.7-8 16.4 1 5.7 9 11.8 9 18.2 0 6.4 1.4 14-2.6 18.6-4 4.6-11.8 7.8-11.4 15.3.4 7.5 6.8 12.5 8.6 18.6 1.8 6 0 17.5 0 17.5l.4 19.6c-8.2 3-12.7 2.4-15 3.5a235 235 0 0 1-28.2 7.4c-1.4 0-30.5-4-32.3-13.6-1-5 3.6-29.2 1.8-34-1.7-4.7.8-8.4-1.7-18.4-4-15.8-3.2-18.3-3.2-27.3 0-5.7-2.4-21.3-2-23.2.5-2 4.8-17 5-22.3.8-14.3.8-22 5-27 2-2.5 5.6-20.3 6.5-21.7 2.4-3.8 26.4-20.7 36.7-24.7 9.2-3.5 30.4-10.4 40.8-13 .5 0 8.6 22.4 9.4 22.2z" mask="url(#c)" transform="rotate(-8.2 47 -2302) scale(.91872)"/><path fill="#350d0d" d="M481.6 338.7h-3c-9 .6-18.8 5.4-26 8.3a800.7 800.7 0 0 1-47.5 16 401 401 0 0 1-59 12.8c-15.3 1.8-30.5 4-44 5.3 7 .2 13 6.4 21.6 5.8 19.8-1.2 39-3 60.7-8.4 21.6-5.3 51-14.4 65.7-20 14.6-5.5 16.8-5 24.3-5.3 7.5-.4 10-1 12.5.7 2.5 1.6 6.7-1.4 6.7-1.4s3.5-7 3-9.8c0-.3-1-1.4-1-1.7l-1.3-.8s-6.2-1.4-12.6-1.5z" mask="url(#d)" transform="rotate(-8.2 47 -2302) scale(.91872)"/><g color="#000"><path fill="#f2c802" d="M654.8 102.5c4.7-.6 10.5 2 15.3 7 6.3 6.7 9 15.7 6.5 21.7-.2 1 0 2.4 1 3.4s2 1.5 3.2 1.2c1-.3 4.3-2.2 6-3 1.7-.7 2.2-1.4 4.2-3.7 1.7-2 .6-5.5.8-7 0-1.5.7-2.4 2-2.3 1 0 1.6.4 2.4 1.2l16 34.8s-7 20-34.2 17.4c-7-.8-15.3-7-19.6-15.7-3.2-6.5-3.4-12.6-1-16.3.7-1.3 1-3 1-4.8 0-1 0-2-.4-3.2a27 27 0 0 1-4-3.5c-7.2-7.7-9.5-18.4-5-24a8.5 8.5 0 0 1 5.8-3.3z"/><path fill="#da9c16" d="M654 114.5c-2.2.4-2.8 3-1.4 6 1.5 3 4.4 5 6.6 4.6 2-.3 2.8-3 1.3-5.8a9.7 9.7 0 0 0-2.3-3c.7.6 1.3 1.4 1.8 2.3 1.2 2.4.7 4.6-1.2 5-1.8.3-4.2-1.4-5.4-4-1.2-2.4-.7-4.6 1-4.8.6 0 1.2 0 1.8.2-.8-.3-1.6-.5-2.3-.4z"/><g transform="matrix(-.98808 .15394 .44304 .8965 0 0)"><ellipse cx="-561.8" cy="229.2" fill="#393228" rx="3.3" ry="5"/><ellipse cx="-562" cy="228" fill="#fff" rx="1.6" ry="2.4"/></g><path fill="#b94519" d="M654.6 125.6c-.6-.8-2.4-1.7-3.3-1.2-.2 0-1.8-1.5-2-1.5-.6.3-.7 1-.8 1.6-.3 1-3.4 1-4 1.5 0 2 5.2 5 6.2 3.3.8-.6.5.1.4.4-.4 2-1 3-.2 3.7 1.8 1.3 4.6-.3 5-2.2.7-3-.5-4.7-1.3-5.6z"/></g><path stroke="#f2c802" stroke-linecap="round" stroke-width="3.6" d="M654.5 104.7c-2 .4-4.2.5-6.8-1.3"/><g fill="none" stroke="#000"><g stroke-dasharray="2.8 2.8"><path d="M708.3 146.5s-2.6-2-8.2-1.6c-5.5.3-12 .3-24.4 3-12.2 2.7-19 4.2-45.6 11.7-26.6 7.6-40 12-57.5 18-17.3 6.3-29 7.4-44.2 12-15.3 4.5-28 9.6-42 14-14 4.3-29.4 8-40 11.4a158 158 0 0 0-31 12.4 94 94 0 0 0-17.8 13.3M763.8 209s-6.4-.4-11.3 0c-5 .3-12.2 2.7-18.7 5.6-6.6 3-19.6 9-36 14s-38 9-60.3 9.3c-22.2.2-46.8-7.2-46.8-7.2"/><path d="M802 222.7s-4-.4-8.4.2c-4.2.6-14.4 5.7-29 13.4-14.4 7.8-47 26-92.8 34.6-45.8 8.5-73 4.8-92.4.6-19.5-4-56-21.4-56-21.4"/><path d="M770 211.3s-5 0-11.6 1.2a151 151 0 0 0-26.3 9.4c-8 3.5-37 16.8-72.5 22.3-35.5 5.6-52-.5-57.4-1.6-5.3-1-26.5-7-26.5-7M778.3 214.3s-4-.4-7.5a140 140 0 0 0-19.3 6c-5.7 2.3-30 15.6-66.7 25-36.8 9.5-54.5 8.8-73 6.8-18.6-2-51.7-12.5-51.7-12.5"/><path d="M786.5 217.6s-3.8-.4-8.2 0c-4.4.4-12.2 3-19 6.2-6.8 3.3-37.7 16.7-49.5 21.2a310.6 310.6 0 0 1-73.5 15.5 183 183 0 0 1-69.2-10l-19-7.2"/><path d="M794 220s-3.8 0-6.8.3-14 4-18 6a622.3 622.3 0 0 1-35.4 16.8c-11 4.6-40 19.4-84.7 24s-60.3-1.7-74-5.3a403 403 0 0 1-40-15m118.2-165s4.7 4.7 6.6 8c1.8 3.2 2.3 8 5.3 12.5s8.4 9.8 12 15.6c3.7 5.8 7.7 12.5 9 15a505 505 0 0 1 5.5 12.2"/><path d="M393.8 147s4-.8 11.2-5.6a184 184 0 0 1 23.6-13.5c8.6-4 14.7-5.5 22-8.2 7.4-2.7 16.3-6 24.7-8 8.3-2.2 20.5-5.4 28.7-9 8-3.8 10-6 14.7-7a330 330 0 0 0 17.4-5.6c3.6-1.2 13-3.7 18-4.2s13 .7 18.2-.5c5.2-1.2 14.8-4.7 20.3-5.5 5.5-.8 14.2 4.3 22 4.3 7.7.1 16.4-2.6 21.2-3.3a58 58 0 0 1 17 0c6.3 1 14.4.2 14.4.2M725.4 190s-3-2-10.6-1.7c-7.7.4-26 5-40 9.7a7311 7311 0 0 1-114.4 35c-14 4-39.5 10.2-51.4 14.2a2650 2650 0 0 1-63.3 20.6c-10 2.8-29.4 14.5-29.4 14.5"/><path d="M651.3 82.3s4.7 4.8 6.6 8c1.8 3.3 2.3 8 5.3 12.6s8.4 9.8 12 15.6c3.7 5.8 7.7 12.5 9 15 1.4 2.7 5.5 12 5.5 12m33.3 42.1s-3-2.2-10.6-1.8c-7.6.4-26 5-40 9.7A7311 7311 0 0 1 558 230.7c-14 3.8-39.6 10-51.4 14a2650 2650 0 0 1-63.4 20.6C433.4 268.2 414 280 414 280"/></g><circle cx="445.3" cy="233.2" r="4" stroke-width="1.3" opacity=".4" transform="rotate(-8.2)"/><g stroke-width="5"><path d="M740.4 201c-5.5-2-6.7-1.8-12.3-4 0 0-3.5-1.6-9.2-1.5-5.6.2-15.5 1.6-24.2 4-8.8 2.4-19.2 6-34 10.7a915 915 0 0 1-35 10.6c-13 3.7-45.6 13.4-65 18.6-19.2 5.3-39.6 11.2-42.6 12-3.2 1-5.7 1.8-6 4-.4 1.8-.3 2.6 2 4.7 2.5 2.6 8.5 7.5 26.6 13.5 18 6 35.7 11 56.2 14.3 20.5 3.2 21.2 3.6 32.2 3.5 11 0 24.3-1.3 42.2-5 17.8-3.8 35-7.4 53.8-15 19-7.7 41.5-18.6 54-25.5 12.7-7 18.7-9.7 25.5-11 6.8-1.3 8.7-2 11.2-.8 2.4 1.2 2.6 3.2 2.6 3.2s2.5-3.2 1.8-5.6c-.7-2.4-2-3.2-4.4-4.4-2.5-1-14.3-4.5-25.6-8.5-11.4-4-25.2-9.4-34.5-12.7-9.2-3.3-10.5-3.6-15-5z"/><path d="M597 73.3c6-1 17-.7 39 .6a83 83 0 0 1 38 10.6c8 5.4 16.8 20.2 29 49.3 2.2 5.4 7.4 17.3 11.5 26.4 4 9 8.4 19.8 9.4 23.7 2 6.8 3 10.2 4.6 12.2a49 49 0 0 0-14.4-.2c-9 1-24.2 4.6-37.2 9-13 4.5-18.3 6.5-37.4 12.2a3101 3101 0 0 1-70.4 20.2c-21.7 6-40 10.8-55.8 16a524.4 524.4 0 0 0-39.8 14c-10 4-28.7 10.4-36.7 15.3l-1 .5-2.7 1.5c-1.8 1.3-10 4.6-12.3 5-1.3 0-7-11-10-19.6-1.5-4.3-4.5-11.2-6.8-15.3-2.2-4-7-14.5-10.6-23.2a85 85 0 0 1-8.8-38c.2-1.8 0-7.2-.4-12-1-13-.6-18.2 2.7-23.6l4-7a67.6 67.6 0 0 1 21-17.2c8-4.5 25.5-12.8 34.6-16.4 3-1.2 9.6-4 15-6.6A342 342 0 0 1 522 89.5a735.7 735.7 0 0 1 48.6-10.7 676 676 0 0 0 26.6-5.4z"/></g></g></svg>